<svg width="29" height="29" viewBox="0 0 29 29" fill="none" xmlns="http://www.w3.org/2000/svg">
<g clip-path="url(#clip0)">
<path d="M11.1436 7.02482V1.99778C11.1434 1.44547 10.6956 0.997871 10.1432 0.998047C9.86 0.998106 9.59012 1.11834 9.40051 1.32875L0.400479 11.3289C0.0713543 11.6954 0.0581706 12.247 0.369482 12.6289L9.36957 23.629C9.71926 24.0564 10.3493 24.1195 10.7768 23.7698C11.0083 23.5803 11.1429 23.2971 11.1436 22.998V18.0149C19.0437 18.2719 23.9737 21.649 26.1957 28.315C26.332 28.7229 26.7138 28.9978 27.1437 28.998C27.1977 28.9982 27.2516 28.9938 27.3048 28.985C27.7885 28.9061 28.1438 28.4882 28.1438 27.998C28.1437 16.2219 21.0547 7.5708 11.1436 7.02482Z" fill="#33C75D"/>
</g>
<defs>
<clipPath id="clip0">
<rect width="28" height="28" fill="white" transform="translate(0.144531 0.998047)"/>
</clipPath>
</defs>
</svg>
