<svg width="29" height="29" viewBox="0 0 29 29" fill="none" xmlns="http://www.w3.org/2000/svg">
<g clip-path="url(#clip0)">
<path d="M17.7041 7.02482V1.99778C17.7043 1.44547 18.1521 0.997871 18.7044 0.998047C18.9877 0.998106 19.2575 1.11834 19.4471 1.32875L28.4472 11.3289C28.7763 11.6954 28.7895 12.247 28.4782 12.6289L19.4781 23.629C19.1284 24.0564 18.4984 24.1195 18.0709 23.7698C17.8393 23.5803 17.7047 23.2972 17.7041 22.998V18.0149C9.80399 18.2719 4.87398 21.649 2.65191 28.3151C2.51562 28.7229 2.13387 28.9979 1.70391 28.998C1.65 28.9982 1.5961 28.9938 1.54289 28.985C1.05914 28.9061 0.70388 28.4882 0.70388 27.998C0.703939 16.2219 7.79297 7.5708 17.7041 7.02482Z" fill="#E03444"/>
</g>
<defs>
<clipPath id="clip0">
<rect width="28" height="28" fill="white" transform="matrix(-1 0 0 1 28.7031 0.998047)"/>
</clipPath>
</defs>
</svg>
