<svg width="45" height="45" viewBox="0 0 45 45" fill="none" xmlns="http://www.w3.org/2000/svg">
<g clip-path="url(#clip0)">
<path d="M28.2497 23.8835C27.2359 23.8835 26.4165 24.705 26.4165 25.7167V33.0502C26.4165 34.0603 25.5951 34.8834 24.583 34.8834H19.083V7.38369C19.083 5.81803 18.0857 4.41921 16.5862 3.89855L16.0434 3.71694H24.583C25.5951 3.71694 26.4165 4.54006 26.4165 5.55048V11.0504C26.4165 12.0622 27.2359 12.8836 28.2497 12.8836C29.2635 12.8836 30.0829 12.0622 30.0829 11.0504V5.55048C30.0829 2.51819 27.6153 0.0505371 24.583 0.0505371H4.87496C4.80513 0.0505371 4.74672 0.0817563 4.67891 0.0908199C4.59063 0.0834348 4.50637 0.0505371 4.41674 0.0505371C2.39454 0.0505371 0.75 1.69475 0.75 3.71694V36.7166C0.75 38.2823 1.74733 39.6811 3.24686 40.2018L14.28 43.8796C14.6539 43.9951 15.0259 44.0501 15.4166 44.0501C17.4388 44.0501 19.083 42.4056 19.083 40.3834V38.5502H24.583C27.6153 38.5502 30.0829 36.0825 30.0829 33.0502V25.7167C30.0829 24.705 29.2635 23.8835 28.2497 23.8835Z" fill="#2C80EF"/>
<path d="M44.2115 17.0876L36.878 9.75446C36.354 9.23011 35.5655 9.07233 34.88 9.35633C34.1962 9.64066 33.7487 10.3097 33.7487 11.0506V16.5505H26.4156C25.4035 16.5505 24.582 17.3716 24.582 18.3837C24.582 19.3958 25.4035 20.2169 26.4156 20.2169H33.7487V25.7168C33.7487 26.4577 34.1962 27.1267 34.88 27.4111C35.5655 27.6951 36.354 27.5373 36.878 27.0133L44.2115 19.6798C44.9282 18.9631 44.9282 17.8043 44.2115 17.0876Z" fill="#2C80EF"/>
</g>
<defs>
<clipPath id="clip0">
<rect width="44" height="44" fill="white" transform="translate(0.75 0.0500488)"/>
</clipPath>
</defs>
</svg>
