<svg width="45" height="45" viewBox="0 0 45 45" fill="none" xmlns="http://www.w3.org/2000/svg">
<g clip-path="url(#clip0)">
<path d="M27.3021 9.89126C29.3365 11.1668 30.7631 13.3254 31.0229 15.831C31.8526 16.2186 32.7734 16.4416 33.7497 16.4416C37.314 16.4416 40.2028 13.5527 40.2028 9.989C40.2028 6.42474 37.314 3.53589 33.7497 3.53589C30.2195 3.53699 27.3559 6.37423 27.3021 9.89126ZM23.0745 23.1039C26.6388 23.1039 29.5276 20.2145 29.5276 16.6508C29.5276 13.0871 26.6382 10.1982 23.0745 10.1982C19.5108 10.1982 16.6203 13.0876 16.6203 16.6513C16.6203 20.215 19.5108 23.1039 23.0745 23.1039ZM25.8118 23.5437H20.3361C15.7802 23.5437 12.0737 27.2508 12.0737 31.8067V38.5031L12.0907 38.6079L12.552 38.7524C16.8998 40.1109 20.6771 40.5639 23.7862 40.5639C29.8587 40.5639 33.3785 38.8325 33.5954 38.7222L34.0265 38.5042H34.0726V31.8067C34.0742 27.2508 30.3678 23.5437 25.8118 23.5437ZM36.4881 16.882H31.0547C30.996 19.0559 30.068 21.0134 28.6002 22.4214C32.6499 23.6255 35.6129 27.3809 35.6129 31.8166V33.8801C40.9776 33.6835 44.0691 32.1631 44.2728 32.0609L44.7039 31.8424H44.75V25.1438C44.75 20.5884 41.0435 16.882 36.4881 16.882ZM11.7514 16.4427C13.0138 16.4427 14.1883 16.0742 15.1833 15.4466C15.4996 13.3836 16.6055 11.5809 18.1853 10.3531C18.1919 10.2323 18.2034 10.1126 18.2034 9.99065C18.2034 6.42639 15.314 3.53754 11.7514 3.53754C8.18657 3.53754 5.29826 6.42639 5.29826 9.99065C5.29826 13.5533 8.18657 16.4427 11.7514 16.4427ZM17.5467 22.4214C16.086 21.0206 15.1613 19.0734 15.0938 16.9127C14.8923 16.8979 14.6929 16.882 14.4876 16.882H9.01242C4.45648 16.882 0.75 20.5884 0.75 25.1438V31.8413L0.767022 31.9445L1.22827 32.09C4.71621 33.1789 7.8291 33.6808 10.5329 33.8389V31.8166C10.534 27.3809 13.4959 23.6266 17.5467 22.4214Z" fill="#2C80EF"/>
</g>
<defs>
<clipPath id="clip0">
<rect width="44" height="44" fill="white" transform="translate(0.75 0.0500488)"/>
</clipPath>
</defs>
</svg>
