<svg width="16" height="16" viewBox="0 0 16 16" fill="none" xmlns="http://www.w3.org/2000/svg">
<path fill-rule="evenodd" clip-rule="evenodd" d="M3.52858 3.52864C3.78892 3.26829 4.21103 3.26829 4.47138 3.52864L12.4714 11.5286C12.7317 11.789 12.7317 12.2111 12.4714 12.4714C12.211 12.7318 11.7889 12.7318 11.5286 12.4714L3.52858 4.47145C3.26823 4.2111 3.26823 3.78899 3.52858 3.52864Z" fill="#FF3131"/>
<path fill-rule="evenodd" clip-rule="evenodd" d="M12.4714 3.52864C12.211 3.26829 11.7889 3.26829 11.5286 3.52864L3.52855 11.5286C3.2682 11.789 3.2682 12.2111 3.52855 12.4714C3.7889 12.7318 4.21101 12.7318 4.47136 12.4714L12.4714 4.47145C12.7317 4.2111 12.7317 3.78899 12.4714 3.52864Z" fill="#FF3131"/>
</svg>
