<svg width="28" height="28" viewBox="0 0 28 28" fill="none" xmlns="http://www.w3.org/2000/svg">
<path d="M13.9762 13.1997C15.0511 13.1997 16.102 12.8809 16.9958 12.2837C17.8896 11.6864 18.5862 10.8376 18.9976 9.84445C19.409 8.8513 19.5166 7.75847 19.3069 6.70416C19.0972 5.64984 18.5795 4.68139 17.8194 3.92127C17.0593 3.16115 16.0908 2.6435 15.0365 2.43378C13.9822 2.22407 12.8894 2.3317 11.8962 2.74307C10.9031 3.15445 10.0542 3.85109 9.457 4.74489C8.85978 5.6387 8.54102 6.68953 8.54102 7.7645C8.54102 9.206 9.11365 10.5884 10.1329 11.6077C11.1522 12.627 12.5347 13.1997 13.9762 13.1997ZM13.9762 3.88225C14.744 3.88225 15.4946 4.10994 16.133 4.53653C16.7715 4.96311 17.2691 5.56944 17.5629 6.27883C17.8567 6.98822 17.9336 7.76881 17.7838 8.52189C17.634 9.27498 17.2643 9.96673 16.7213 10.5097C16.1784 11.0526 15.4866 11.4224 14.7336 11.5722C13.9805 11.722 13.1999 11.6451 12.4905 11.3512C11.7811 11.0574 11.1748 10.5598 10.7482 9.92137C10.3216 9.28293 10.0939 8.53234 10.0939 7.7645C10.0939 6.73487 10.5029 5.7474 11.231 5.01934C11.9591 4.29127 12.9465 3.88225 13.9762 3.88225V3.88225Z" fill="white"/>
<path d="M23.6585 18.9221C22.4133 17.606 20.9128 16.5577 19.2487 15.8413C17.5846 15.1249 15.7918 14.7554 13.9801 14.7554C12.1683 14.7554 10.3755 15.1249 8.71143 15.8413C7.04731 16.5577 5.5468 17.606 4.30161 18.9221C4.03165 19.2105 3.88171 19.5908 3.88233 19.9858V24.07C3.88233 24.4818 4.04593 24.8768 4.33716 25.168C4.62839 25.4593 5.02337 25.6229 5.43523 25.6229H22.5171C22.929 25.6229 23.324 25.4593 23.6152 25.168C23.9064 24.8768 24.07 24.4818 24.07 24.07V19.9858C24.0728 19.5919 23.9257 19.2116 23.6585 18.9221V18.9221ZM22.5171 24.07H5.43523V19.9781C6.53563 18.8194 7.86031 17.8967 9.32863 17.2662C10.7969 16.6356 12.3782 16.3105 13.9762 16.3105C15.5742 16.3105 17.1554 16.6356 18.6237 17.2662C20.0921 17.8967 21.4167 18.8194 22.5171 19.9781V24.07Z" fill="white"/>
</svg>
