<svg width="478" height="156" viewBox="0 0 478 156" fill="none" xmlns="http://www.w3.org/2000/svg">
<path d="M447.692 112.44H426.488L397.348 25.6399H415.948L437.152 92.3519L458.232 25.6399H476.956L447.692 112.44Z" fill="white"/>
<path fill-rule="evenodd" clip-rule="evenodd" d="M12.5474 108.472C18.4168 112.275 25.6088 114.176 34.1234 114.176C43.3821 114.176 50.9461 111.82 56.8154 107.108C62.6848 102.396 65.6194 96.0307 65.6194 88.0121C65.6194 84.0497 64.8595 80.5257 63.3396 77.4401H35.7544C39.655 78.7493 42.542 79.9999 44.4154 81.1921C47.1434 82.8454 48.5074 85.2014 48.5074 88.2601C48.5074 91.0707 47.3501 93.3027 45.0354 94.9561C42.7208 96.6094 39.2488 97.4361 34.6194 97.4361C24.6994 97.4361 18.0448 93.0134 14.6554 84.1681L0.0234375 92.7241C2.50344 99.4201 6.6781 104.669 12.5474 108.472ZM54.4146 68.1732C40.4777 67.7586 25.9892 67.2863 10.7957 66.7562C6.01151 62.7367 3.61944 57.05 3.61944 49.6961C3.61944 41.7601 6.38877 35.5187 11.9274 30.9721C17.4661 26.2601 24.2034 23.9041 32.1394 23.9041C39.0834 23.9041 45.2421 25.5987 50.6154 28.9881C55.9888 32.3774 60.1634 37.1721 63.1394 43.3721L48.7554 51.6801C45.2834 44.2401 39.7448 40.5201 32.1394 40.5201C28.6674 40.5201 25.8981 41.3467 23.8314 43.0001C21.7648 44.5707 20.7314 46.6374 20.7314 49.2001C20.7314 51.9281 21.8474 54.1601 24.0794 55.8961C26.5594 57.6321 30.9408 59.4507 37.2234 61.3521L43.1754 63.3361C44.2501 63.6667 46.1101 64.3694 48.7554 65.4441C51.2354 66.3534 53.0541 67.2214 54.2114 68.0481C54.2795 68.0897 54.3472 68.1314 54.4146 68.1732ZM90.496 77.4401V112.44H107.608V77.4401H90.496ZM107.608 69.5242C101.976 69.409 96.2766 69.2825 90.496 69.1447V42.0081H67.184V25.6401H131.044V42.0081H107.608V69.5242ZM138.862 77.4401L126.612 112.44H145.088L150.296 96.8161H184.892L190.1 112.44H208.7L196.4 77.4401H178.425L179.56 80.8201H155.752L156.886 77.4401H138.862ZM159.291 70.2776C153.377 70.2288 147.431 70.1661 141.435 70.0896L156.992 25.6401H178.196L193.928 70.4047C187.973 70.4105 182.022 70.4019 176.055 70.379L167.656 45.3561L159.291 70.2776ZM210.691 77.4401C212.23 86.4805 216.385 94.3858 223.156 101.156C232.001 109.836 243.12 114.176 256.512 114.176C269.077 114.176 279.328 110.332 287.264 102.644C294.12 96.0015 298.015 87.6002 298.947 77.4401H255.644V80.9441H281.932C280.361 86.1521 277.385 90.2027 273.004 93.0961C268.622 95.9894 263.166 97.4361 256.636 97.4361C247.625 97.4361 240.433 94.7907 235.06 89.5001C231.617 86.0571 229.277 82.0371 228.04 77.4401H210.691ZM227.015 70.2268C221.322 70.282 215.664 70.3246 210.025 70.3543C210.016 69.9595 210.012 69.5627 210.012 69.1641C210.012 56.5161 214.352 45.8107 223.032 37.0481C231.794 28.2854 242.624 23.9041 255.52 23.9041C263.538 23.9041 270.896 25.7227 277.592 29.3601C284.288 32.9974 289.537 37.9161 293.34 44.1161L278.708 52.5481C276.641 48.9934 273.5 46.1001 269.284 43.8681C265.068 41.6361 260.438 40.5201 255.396 40.5201C247.046 40.5201 240.226 43.2481 234.936 48.7041C229.645 53.9947 227 60.8147 227 69.1641C227 69.521 227.005 69.8752 227.015 70.2268ZM255.644 69.8475C269.725 69.6128 284.159 69.3043 299.168 68.922V65.8161H255.644V69.8475ZM311.339 77.4401V112.44H365.031V96.0721H328.451V77.4401H311.339ZM361.311 67.049C343.807 67.6452 327.233 68.1619 311.339 68.5993V25.6401H364.411V42.0081H328.451V60.4841H361.311V67.049Z" fill="white"/>
</svg>