<svg width="25" height="25" viewBox="0 0 25 25" fill="none" xmlns="http://www.w3.org/2000/svg">
<path d="M16.3055 1.55283C14.4522 1.55283 12.6748 2.28907 11.3642 3.59958C10.0537 4.9101 9.31748 6.68754 9.31748 8.54089C9.31681 9.22772 9.41888 9.91079 9.6203 10.5674L1.55298 18.6347V23.2934H6.21168L14.279 15.2261C15.2779 15.5326 16.3329 15.6112 17.3662 15.4561C18.3995 15.301 19.3849 14.9161 20.2498 14.3298C21.1147 13.7435 21.8372 12.9707 22.3639 12.0683C22.8907 11.1659 23.2084 10.1569 23.2936 9.11546C23.4504 7.45816 22.9946 5.80085 22.0124 4.45675C21.3615 3.55293 20.5039 2.81781 19.5112 2.31267C18.5185 1.80753 17.4194 1.54701 16.3055 1.55283V1.55283ZM16.3055 13.976C15.7794 13.974 15.2563 13.8955 14.7526 13.7431L13.8597 13.4713L13.1997 14.1313L10.7306 16.6004L9.63583 15.5289L8.54103 16.6237L9.61253 17.6952L8.37798 18.9298L7.30648 17.8583L6.21168 18.9531L7.28318 20.0246L5.56723 21.7405H3.10588V19.2792L10.7151 11.6467L11.3751 10.9867L11.1499 10.2491C10.7591 9.02021 10.8089 7.69356 11.2908 6.49746C11.7726 5.30137 12.6563 4.31065 13.7898 3.69583C14.6064 3.26898 15.518 3.05671 16.4391 3.07896C17.3603 3.10122 18.2606 3.35728 19.0556 3.82309C19.8505 4.28889 20.514 4.94914 20.9837 5.74181C21.4534 6.53448 21.7139 7.43354 21.7407 8.35454C21.7946 9.4533 21.4982 10.5408 20.8944 11.4603C20.403 12.232 19.7248 12.8671 18.9227 13.3068C18.1205 13.7466 17.2203 13.9768 16.3055 13.976Z" fill="white"/>
<path d="M17.082 9.31747C17.9396 9.31747 18.6349 8.62221 18.6349 7.76457C18.6349 6.90693 17.9396 6.21167 17.082 6.21167C16.2243 6.21167 15.5291 6.90693 15.5291 7.76457C15.5291 8.62221 16.2243 9.31747 17.082 9.31747Z" fill="white"/>
</svg>
