<svg width="32" height="32" viewBox="0 0 32 32" fill="none" xmlns="http://www.w3.org/2000/svg">
<path d="M31.1206 6.07178C30.5273 5.39404 29.6816 5.02075 28.7395 5.02075H5.96265L5.7334 3.302C5.48633 1.45044 4.19727 0 2.79858 0H1.125C0.607178 0 0.1875 0.419678 0.1875 0.9375C0.1875 1.45532 0.607178 1.875 1.125 1.875H2.79858C3.09937 1.875 3.73633 2.51099 3.87476 3.5498L6.55835 23.6772C6.67651 24.5645 7.13232 25.395 7.8418 26.0161C8.36792 26.4768 8.98975 26.7832 9.64111 26.9114C9.37573 27.3994 9.22485 27.9585 9.22485 28.552C9.22485 30.4534 10.7717 32 12.6729 32C14.574 32 16.1208 30.4534 16.1208 28.552C16.1208 27.9856 15.9827 27.4512 15.7395 26.9792H20.6521C20.4089 27.4512 20.2708 27.9856 20.2708 28.552C20.2708 30.4534 21.8176 32 23.7188 32C25.6199 32 27.1667 30.4534 27.1667 28.552C27.1667 27.9856 27.0286 27.4512 26.7854 26.9792H29.2417C29.7593 26.9792 30.1792 26.5593 30.1792 26.0417C30.1792 25.5239 29.7593 25.1042 29.2417 25.1042H10.3298C9.41382 25.1042 8.53784 24.3372 8.41675 23.4292L8.2207 21.9583H15.5173C15.5176 21.9583 15.5178 21.9585 15.5181 21.9585C15.5183 21.9585 15.5186 21.9583 15.519 21.9583H21.542C21.5422 21.9583 21.5425 21.9585 21.543 21.9585C21.5432 21.9585 21.5432 21.9583 21.5435 21.9583H26.7312C27.6262 21.9583 28.5098 21.6162 29.2192 20.9954C29.9287 20.3743 30.3845 19.5435 30.5027 18.6562L31.8474 8.5708C31.9719 7.63696 31.7139 6.74951 31.1206 6.07178V6.07178ZM14.2458 28.552C14.2458 29.4194 13.5403 30.125 12.6729 30.125C11.8057 30.125 11.0999 29.4194 11.0999 28.552C11.0999 27.6848 11.8057 26.9792 12.6729 26.9792C13.5403 26.9792 14.2458 27.6848 14.2458 28.552V28.552ZM25.2917 28.552C25.2917 29.4194 24.5862 30.125 23.7188 30.125C22.8513 30.125 22.1458 29.4194 22.1458 28.552C22.1458 27.6848 22.8513 26.9792 23.7188 26.9792C24.5862 26.9792 25.2917 27.6848 25.2917 28.552V28.552ZM29.7097 7.30688C29.9419 7.57202 30.041 7.93262 29.9888 8.32275L29.425 12.552H23.0461L23.4231 6.89575H28.7395C29.1333 6.89575 29.4778 7.04175 29.7097 7.30688V7.30688ZM16.396 20.0833L16.0188 14.427H21.042L20.6648 20.0833H16.396ZM15.8938 12.552L15.5168 6.89575H21.5439L21.167 12.552H15.8938ZM13.6377 6.89575L14.0146 12.552H6.96655L6.2124 6.89575H13.6377ZM7.21655 14.427H14.1396L14.5168 20.0833H7.9707L7.21655 14.427ZM26.7312 20.0833H22.5439L22.9211 14.427H29.175L28.6443 18.4084C28.5232 19.3164 27.647 20.0833 26.7312 20.0833Z" fill="white"/>
</svg>
