<svg width="33" height="33" viewBox="0 0 33 33" fill="none" xmlns="http://www.w3.org/2000/svg">
<g clip-path="url(#clip0)">
<path d="M32.4331 15.6425C33.0132 15.0045 32.9572 14.0267 32.308 13.459L18.0068 0.945404C17.3577 0.377739 16.317 0.389631 15.6815 0.972212L1.33168 14.1262C0.696209 14.7088 0.66502 15.6854 1.26262 16.3065L1.62239 16.6812C2.21926 17.3024 3.18404 17.3765 3.7759 16.8462L4.84833 15.8858V29.9461C4.84833 30.8088 5.54732 31.5072 6.40935 31.5072H12.003C12.865 31.5072 13.564 30.8088 13.564 29.9461V20.1095H20.6987V29.9461C20.6863 30.8082 21.3031 31.5065 22.1651 31.5065H28.0929C28.9549 31.5065 29.6539 30.8082 29.6539 29.9455V16.0837C29.6539 16.0837 29.9502 16.3433 30.3156 16.6644C30.6804 16.985 31.4465 16.728 32.0266 16.0894L32.4331 15.6425Z" fill="white"/>
</g>
<defs>
<clipPath id="clip0">
<rect width="32" height="32" fill="white" transform="translate(0.833984 0.0175781)"/>
</clipPath>
</defs>
</svg>
