<svg width="33" height="33" viewBox="0 0 33 33" fill="none" xmlns="http://www.w3.org/2000/svg">
<g clip-path="url(#clip0)">
<path d="M25.8164 12.0166H24.8164V8.0166C24.8164 3.6046 21.2284 0.0166016 16.8164 0.0166016C12.4044 0.0166016 8.81641 3.6046 8.81641 8.0166V12.0166H7.81641C6.16307 12.0166 4.81641 13.3619 4.81641 15.0166V29.0166C4.81641 30.6713 6.16307 32.0166 7.81641 32.0166H25.8164C27.4697 32.0166 28.8164 30.6713 28.8164 29.0166V15.0166C28.8164 13.3619 27.4697 12.0166 25.8164 12.0166ZM11.4831 8.0166C11.4831 5.07527 13.8751 2.68327 16.8164 2.68327C19.7577 2.68327 22.1497 5.07527 22.1497 8.0166V12.0166H11.4831V8.0166ZM18.1497 22.3126V25.3499C18.1497 26.0859 17.5537 26.6833 16.8164 26.6833C16.0791 26.6833 15.4831 26.0859 15.4831 25.3499V22.3126C14.6897 21.8499 14.1497 20.9993 14.1497 20.0166C14.1497 18.5459 15.3457 17.3499 16.8164 17.3499C18.2871 17.3499 19.4831 18.5459 19.4831 20.0166C19.4831 20.9993 18.9431 21.8499 18.1497 22.3126Z" fill="white"/>
</g>
<defs>
<clipPath id="clip0">
<rect width="32" height="32" fill="white" transform="translate(0.816406 0.0166016)"/>
</clipPath>
</defs>
</svg>
