<svg width="32" height="33" viewBox="0 0 32 33" fill="none" xmlns="http://www.w3.org/2000/svg">
<path d="M5.2793 0.700195V15.375H26.8078V0.700195H5.2793ZM20.0779 4.70153H12.0059V3.36775H20.0779V4.70153Z" fill="white"/>
<path d="M31.6871 22.1766C31.1614 21.5 29.9793 20.9335 27.5793 22.3385C27.8013 21.3511 27.0111 20.7393 26.0772 20.7393C25.2511 20.7393 24.2812 20.9529 23.5139 21.7266C22.4102 20.286 21.2738 20.4576 19.0632 21.8173C18.2207 22.3353 17.4795 22.7788 16.9244 23.0896C16.7774 23.1737 16.6599 23.2352 16.5423 23.2967C16.7578 23.3421 16.9766 23.3809 17.2215 23.3809C20.3236 23.3809 22.7726 23.3809 22.7726 26.0485C22.7726 28.0977 20.3693 28.7128 19.0991 28.7387H14.6974C12.33 28.7387 10.0116 26.2686 10.0116 26.2686C10.0116 26.2686 12.748 27.3823 14.6974 27.3823H19.0861C19.0958 27.3823 21.4273 27.2916 21.4273 26.0517C21.4273 24.9154 20.2453 24.7179 18.384 24.7179C15.3472 24.7179 13.8778 23.3518 13.8778 23.3518C13.8778 23.3518 11.5137 21.6425 10.7888 21.1925C9.07445 20.1306 8.14055 19.5835 5.05478 20.749C3.14455 21.4644 0 22.9406 0 22.9406L3.82374 31.3545L5.62622 30.2667C6.70379 29.5869 7.71932 29.6063 9.13975 30.2667C10.7333 31.0081 12.9439 31.7235 14.4917 32.2091C16.833 32.944 17.2346 32.8469 18.7758 31.9663C20.0918 31.2153 29.4046 25.7571 30.3842 25.0708C31.9059 24.0057 32.3826 23.0734 31.6871 22.1766Z" fill="white"/>
</svg>
