<svg width="32" height="33" viewBox="0 0 32 33" fill="none" xmlns="http://www.w3.org/2000/svg">
<g clip-path="url(#clip0)">
<path d="M25 12.2656H21.3333V10.2656V9.26562L24 8.26562C24 3.85362 20.412 0.265625 16 0.265625C11.588 0.265625 8 3.85362 8 8.26562V12.2656H7C5.34667 12.2656 4 13.611 4 15.2656V29.2656C4 30.9203 5.34667 32.2656 7 32.2656H25C26.6533 32.2656 28 30.9203 28 29.2656V15.2656C28 13.611 26.6533 12.2656 25 12.2656ZM10.6667 8.26562C10.6667 5.32429 13.0587 2.93229 16 2.93229C18.9413 2.93229 21.3333 5.32429 21.3333 8.26562V10.2656V12.2656H10.6667V8.26562ZM17.3333 22.5616V25.599C17.3333 26.335 16.7373 26.9323 16 26.9323C15.2627 26.9323 14.6667 26.335 14.6667 25.599V22.5616C13.8733 22.099 13.3333 21.2483 13.3333 20.2656C13.3333 18.795 14.5293 17.599 16 17.599C17.4707 17.599 18.6667 18.795 18.6667 20.2656C18.6667 21.2483 18.1267 22.099 17.3333 22.5616Z" fill="white"/>
</g>
<defs>
<clipPath id="clip0">
<rect width="32" height="32" fill="white" transform="translate(0 0.265625)"/>
</clipPath>
</defs>
</svg>
