<svg width="29" height="29" viewBox="0 0 29 29" fill="none" xmlns="http://www.w3.org/2000/svg">
<g clip-path="url(#clip0)">
<path d="M27.6322 5.51425L10.4835 1.88511C9.758 1.73161 9.03887 2.1997 8.88537 2.92524L8.55957 5.01894L28.3462 9.20611L28.672 7.11241C28.8255 6.38715 28.3577 5.66779 27.6322 5.51425Z" fill="#2C80EF"/>
<path d="M20.4207 9.65034C20.2204 8.92902 19.4666 8.50265 18.7455 8.70263L15.49 9.60637L7.81552 7.98218L6.97149 11.9701L1.69793 13.4338C0.976884 13.6339 0.550521 14.3877 0.750503 15.1088L3.72246 25.8183C3.92276 26.5394 4.67661 26.966 5.39766 26.7657L22.4452 22.0349C23.1663 21.8346 23.5926 21.081 23.3926 20.3596L22.8825 18.5211L24.7944 18.9254C25.52 19.0791 26.2391 18.6111 26.3926 17.8855L27.6022 12.1694L20.7154 10.7121L20.4207 9.65034ZM22.3894 15.0934L22.811 13.1008C22.8744 12.8024 23.1702 12.61 23.4685 12.673L25.4611 13.0949C25.7597 13.1582 25.9521 13.4537 25.8891 13.7523L25.4675 15.7449C25.4042 16.0433 25.1084 16.236 24.8101 16.1727L22.8175 15.7511C22.5186 15.6875 22.3261 15.3917 22.3894 15.0934ZM1.99459 14.5026L6.7123 13.1938L17.8437 10.1047L19.0415 9.77195C19.0634 9.76605 19.0852 9.76326 19.1065 9.76326C19.2026 9.76326 19.3175 9.8263 19.3511 9.94704L19.4917 10.4535L19.9324 12.0413L2.40078 16.9064L1.8195 14.8124C1.78308 14.681 1.86324 14.539 1.99459 14.5026ZM22.3236 20.656C22.346 20.7372 22.3225 20.8044 22.2987 20.8465C22.2751 20.8885 22.2298 20.9434 22.1485 20.9658L5.10128 25.6967C5.07973 25.7026 5.05759 25.7057 5.03627 25.7057C4.94019 25.7057 4.82531 25.6424 4.79173 25.5216L3.05828 19.2749L20.5899 14.4096L21.6591 18.2622L22.3236 20.656Z" fill="#2C80EF"/>
<path d="M7.8555 21.0834C7.77369 20.7893 7.46665 20.6156 7.17251 20.6971L5.18162 21.2498C4.88775 21.3313 4.7138 21.6387 4.79561 21.9328L5.34802 23.9235C5.42982 24.2176 5.73686 24.3913 6.031 24.3095L8.0219 23.7571C8.31604 23.6755 8.48971 23.3682 8.40818 23.0741L7.8555 21.0834Z" fill="#2C80EF"/>
</g>
<defs>
<clipPath id="clip0">
<rect width="28" height="28" fill="white" transform="translate(0.701172 0.335449)"/>
</clipPath>
</defs>
</svg>
