<svg width="27" height="27" viewBox="0 0 27 27" fill="none" xmlns="http://www.w3.org/2000/svg">
<g clip-path="url(#clip0)">
<path d="M17.6254 13.8491C17.495 12.9503 17.1471 12.1284 16.6258 11.4324L15.6017 12.4565L14.5245 11.3794L15.5487 10.3553C14.8526 9.83397 14.0308 9.48604 13.132 9.35571V10.8022H11.6086V9.35571C10.7098 9.48604 9.88797 9.83397 9.19191 10.3553L10.2161 11.3794L9.13895 12.4565L8.11479 11.4324C7.59349 12.1284 7.24556 12.9503 7.11523 13.8491H8.56171V15.3725H7.11523C7.24556 16.2713 7.59349 17.0931 8.11479 17.7892L9.13895 16.765L10.2161 17.8421L9.19191 18.8663C9.88797 19.3876 10.7098 19.7355 11.6086 19.8658V18.4194H13.132V19.8658C14.0308 19.7355 14.8526 19.3876 15.5487 18.8663L14.5245 17.8421L15.6017 16.765L16.6258 17.7892C17.1471 17.0931 17.495 16.2713 17.6254 15.3725H16.1789V13.8491H17.6254ZM12.3703 16.8959C11.1103 16.8959 10.0851 15.8708 10.0851 14.6108C10.0851 13.3508 11.1103 12.3256 12.3703 12.3256C13.6303 12.3256 14.6555 13.3508 14.6555 14.6108C14.6555 15.8708 13.6303 16.8959 12.3703 16.8959Z" fill="white"/>
<path d="M21.9957 12.3257H26.8936C26.5107 5.79395 21.187 0.470245 14.6553 0.0874023V4.98521C18.2875 5.84592 21.135 8.69344 21.9957 12.3257Z" fill="white"/>
<path d="M12.3701 13.8491C11.9498 13.8491 11.6084 14.1905 11.6084 14.6108C11.6084 15.0312 11.9498 15.3726 12.3701 15.3726C12.7905 15.3726 13.1318 15.0312 13.1318 14.6108C13.1318 14.1905 12.7905 13.8491 12.3701 13.8491Z" fill="white"/>
<path d="M20.729 13.8491L20.6219 13.2138C20.0298 9.70648 17.2745 6.9512 13.7672 6.35909L13.1318 6.25197V3.23882C12.8773 3.22215 12.6234 3.18506 12.3701 3.18506C6.06967 3.18506 0.893555 8.31039 0.893555 14.6108C0.893555 20.9113 6.06967 26.0874 12.3701 26.0874C18.6706 26.0874 23.7959 20.9113 23.7959 14.6108C23.7959 14.3575 23.7588 14.1036 23.7421 13.8491H20.729ZM12.3701 21.4663C8.58989 21.4663 5.51465 18.3911 5.51465 14.6108C5.51465 10.8306 8.58989 7.75537 12.3701 7.75537C16.1503 7.75537 19.2256 10.8306 19.2256 14.6108C19.2256 18.3911 16.1503 21.4663 12.3701 21.4663Z" fill="white"/>
</g>
<defs>
<clipPath id="clip0">
<rect width="26" height="26" fill="white" transform="translate(0.893555 0.0874023)"/>
</clipPath>
</defs>
</svg>
