<svg width="27" height="27" viewBox="0 0 27 27" fill="none" xmlns="http://www.w3.org/2000/svg">
<g clip-path="url(#clip0)">
<path d="M23.8891 3.00896C23.593 2.15672 22.7841 1.55005 21.838 1.55005H5.94913C5.00304 1.55005 4.19413 2.15672 3.89804 3.00896L0.893555 11.6612V23.2168C0.893555 24.0112 1.54355 24.6612 2.33798 24.6612H3.7824C4.58407 24.6612 5.22682 24.0112 5.22682 23.2168V21.7723H22.5602V23.2167C22.5602 24.0111 23.2102 24.6611 24.0046 24.6611H25.449C26.2507 24.6611 26.8934 24.0111 26.8934 23.2167V11.6612L23.8891 3.00896ZM5.94913 17.439C4.75022 17.439 3.78247 16.4712 3.78247 15.2723C3.78247 14.0734 4.75022 13.1056 5.94913 13.1056C7.14804 13.1056 8.1158 14.0734 8.1158 15.2723C8.1158 16.4712 7.14798 17.439 5.94913 17.439ZM21.838 17.439C20.6391 17.439 19.6713 16.4712 19.6713 15.2723C19.6713 14.0734 20.6391 13.1056 21.838 13.1056C23.0369 13.1056 24.0046 14.0734 24.0046 15.2723C24.0046 16.4712 23.0369 17.439 21.838 17.439ZM3.78247 10.2167L5.94913 3.71672H21.838L24.0047 10.2167H3.78247Z" fill="white"/>
</g>
<defs>
<clipPath id="clip0">
<rect width="26" height="26" fill="white" transform="translate(0.893555 0.105713)"/>
</clipPath>
</defs>
</svg>
