<svg width="27" height="27" viewBox="0 0 27 27" fill="none" xmlns="http://www.w3.org/2000/svg">
<g clip-path="url(#clip0)">
<path d="M24.7555 6.1974L24.7771 6.17574L19.3966 0.809647L17.8655 2.34074L20.9132 5.38849C19.5555 5.90849 18.5877 7.21574 18.5877 8.75407C18.5877 10.7474 20.2054 12.3652 22.1987 12.3652C22.7115 12.3652 23.2026 12.2568 23.6432 12.0618V22.4762C23.6432 23.2707 22.9932 23.9207 22.1988 23.9207C21.4044 23.9207 20.7544 23.2707 20.7544 22.4763V15.9763C20.7544 14.3802 19.4616 13.0874 17.8655 13.0874H16.4211V2.97631C16.421 1.38016 15.1282 0.0874023 13.5321 0.0874023H4.86547C3.26932 0.0874023 1.97656 1.38016 1.97656 2.97631V26.0874H16.421V15.2541H18.5877V22.4763C18.5877 24.4696 20.2054 26.0874 22.1987 26.0874C24.1921 26.0874 25.8098 24.4696 25.8098 22.4763V8.75407C25.8099 7.7574 25.4055 6.85465 24.7555 6.1974ZM13.5321 10.1985H4.86547V2.97631H13.5321V10.1985ZM22.1988 10.1985C21.4044 10.1985 20.7544 9.54849 20.7544 8.75407C20.7544 7.95965 21.4044 7.30965 22.1988 7.30965C22.9932 7.30965 23.6432 7.95965 23.6432 8.75407C23.6432 9.54849 22.9932 10.1985 22.1988 10.1985Z" fill="white"/>
</g>
<defs>
<clipPath id="clip0">
<rect width="26" height="26" fill="white" transform="translate(0.893555 0.0874023)"/>
</clipPath>
</defs>
</svg>
