<svg width="27" height="27" viewBox="0 0 27 27" fill="none" xmlns="http://www.w3.org/2000/svg">
<g clip-path="url(#clip0)">
<path d="M16.1245 9.07861H11.6615C11.6096 10.0687 11.5662 11.0597 11.5312 12.0506H16.2547C16.2198 11.0597 16.1764 10.0687 16.1245 9.07861Z" fill="white"/>
<path d="M15.8292 4.58325H11.9562C11.8784 5.57166 11.8089 6.56265 11.748 7.55528H16.0374C15.9765 6.56265 15.9071 5.57166 15.8292 4.58325Z" fill="white"/>
<path d="M17.8865 18.1029V21.0415H18.448L18.8362 20.4971C19.0966 20.132 19.4229 19.8358 19.7892 19.6155V14.0232C19.7892 12.6693 20.1616 11.3425 20.8662 10.1863C21.1339 9.74705 21.2754 9.24295 21.2754 8.72853C21.2754 7.85144 20.8565 7.0136 20.1548 6.48735C19.3815 5.90733 18.7798 5.12763 18.4146 4.23251L17.7928 2.70811C17.621 2.28683 17.3869 1.90551 17.1045 1.57178L17.242 3.16209C17.6696 8.10946 17.8865 13.1362 17.8865 18.1029Z" fill="white"/>
<path d="M15.4733 0.393096C14.9817 0.195049 14.4475 0.0876465 13.8934 0.0876465C13.3394 0.0876465 12.8052 0.194998 12.3135 0.393096L12.083 3.05967H15.7038L15.4733 0.393096Z" fill="white"/>
<path d="M16.3027 13.574H11.4844C11.4581 14.5658 11.4407 15.5568 11.4316 16.546H16.3554C16.3463 15.5567 16.3289 14.5657 16.3027 13.574Z" fill="white"/>
<path d="M22.9584 21.6748C22.778 21.2675 22.4498 20.9549 22.0343 20.7944C21.3234 20.5198 20.5183 20.7615 20.0759 21.3817L19.2321 22.565H8.55366L7.70977 21.3817C7.38955 20.9327 6.87904 20.6822 6.35204 20.6822C6.15099 20.6822 5.94767 20.7186 5.7514 20.7944C5.33585 20.9549 5.0077 21.2675 4.82733 21.6747C4.64695 22.0821 4.63599 22.5352 4.79645 22.9507L5.2416 24.1035C5.6998 25.2902 6.86239 26.0876 8.13456 26.0876H19.6511C20.9233 26.0876 22.0858 25.2902 22.5441 24.1035L22.9892 22.9507C23.1497 22.5352 23.1387 22.0821 22.9584 21.6748Z" fill="white"/>
<path d="M7.99685 14.0234V19.6157C8.36319 19.8361 8.68941 20.1323 8.94981 20.4973L9.33803 21.0417H9.89962V18.1031C9.89962 13.1367 10.1165 8.1099 10.5442 3.16224L10.6817 1.57202C10.3993 1.90581 10.1652 2.28712 9.99337 2.70835L9.3716 4.23271C9.00648 5.12783 8.40473 5.90752 7.63133 6.48755C6.92969 7.01379 6.51074 7.85163 6.51074 8.72872C6.51074 9.24314 6.65222 9.74724 6.91994 10.1866C7.62447 11.3427 7.99685 12.6695 7.99685 14.0234Z" fill="white"/>
<path d="M16.3619 18.1029C16.3619 18.0918 16.3618 18.0807 16.3618 18.0696H11.423C11.423 18.0807 11.4229 18.0919 11.4229 18.103V21.0416H16.3619V18.1029H16.3619Z" fill="white"/>
</g>
<defs>
<clipPath id="clip0">
<rect width="26" height="26" fill="white" transform="translate(0.892578 0.0876465)"/>
</clipPath>
</defs>
</svg>
