<svg width="27" height="27" viewBox="0 0 27 27" fill="none" xmlns="http://www.w3.org/2000/svg">
<g clip-path="url(#clip0)">
<path d="M2.65918 14.6322C4.65208 11.7635 5.82435 9.91536 6.67904 8.54956C3.39444 8.84006 0.246094 12.9271 0.246094 12.9271L2.4141 15.095C2.47701 14.9347 2.55733 14.779 2.65918 14.6322Z" fill="white"/>
<path d="M11.124 23.8049L13.2906 25.9714C13.2906 25.9714 17.3775 22.8233 17.6681 19.5388C16.3027 20.3932 14.4551 21.565 11.5855 23.5584C11.4403 23.6592 11.2856 23.7414 11.124 23.8049Z" fill="white"/>
<path d="M7.82965 22.6847C7.45773 22.835 7.09221 22.9948 6.71112 23.1221C5.69327 23.4623 4.64497 23.6922 3.58212 23.8388C3.13661 23.9003 2.68698 23.9525 2.23659 23.9866C2.24088 23.931 2.245 23.8753 2.24971 23.8198C2.34265 22.7369 2.50742 21.6596 2.77361 20.605C2.90187 20.0961 3.06554 19.6014 3.24124 19.1074C3.3505 18.8002 3.48683 18.5063 3.62435 18.2123L3.38599 17.9741C2.85587 18.3302 2.3948 18.7802 2.00354 19.2893C1.4243 20.0431 0.990142 20.8971 0.686603 21.7971C0.360523 22.7634 0.16607 23.7868 0.135792 24.807C0.131502 24.9503 0.121662 25.0967 0.143866 25.239C0.172462 25.4226 0.25312 25.5965 0.374317 25.7374C0.494252 25.8767 0.652119 25.9819 0.82706 26.0384C0.973909 26.0857 1.1216 26.0866 1.27392 26.0854C2.20009 26.0777 3.14065 25.9168 4.02721 25.6533C5.6487 25.1716 7.28565 24.2653 8.24514 22.8331L8.01317 22.6013C7.95236 22.6299 7.89139 22.6579 7.82965 22.6847Z" fill="white"/>
<path d="M25.8666 0.352204C25.8666 0.352204 25.8664 0.35212 25.8663 0.351951C25.6975 0.183318 25.4689 0.0888672 25.2308 0.0888672C25.225 0.0888672 25.219 0.0889513 25.2131 0.0890354C22.319 0.145807 15.1786 0.687114 11.3866 4.47929C9.66523 6.2007 9.10575 7.09676 7.87948 9.06048C6.99637 10.4743 5.78734 12.4108 3.5777 15.5912C3.32951 15.9487 3.37265 16.4326 3.6804 16.7401L9.47767 22.5375C9.6516 22.7115 9.88197 22.801 10.1138 22.801C10.2921 22.801 10.4711 22.7482 10.6266 22.6403C13.8081 20.4301 15.7439 19.2213 17.1572 18.3386C19.1208 17.1124 20.017 16.5527 21.7388 14.8312C25.5375 11.0323 26.075 3.89661 26.1295 1.00495C26.1343 0.760792 26.0393 0.525126 25.8666 0.352204ZM19.1535 11.2908C17.9864 12.4579 16.0943 12.4579 14.9272 11.2908C13.7599 10.1237 13.76 8.23169 14.9273 7.06463C16.0943 5.89749 17.9864 5.89733 19.1535 7.06438C20.3203 8.23144 20.3205 10.1238 19.1535 11.2908Z" fill="white"/>
</g>
<defs>
<clipPath id="clip0">
<rect width="26" height="26" fill="white" transform="translate(0.129883 0.0874023)"/>
</clipPath>
</defs>
</svg>
