<svg width="27" height="27" viewBox="0 0 27 27" fill="none" xmlns="http://www.w3.org/2000/svg">
<g clip-path="url(#clip0)">
<path d="M13.1299 1.87256C10.1936 2.0411 7.44005 3.18211 5.24219 5.14089L8.64128 8.53998C9.92046 7.47505 11.4737 6.8315 13.1299 6.68017V1.87256Z" fill="white"/>
<path d="M7.56412 9.61681L4.16507 6.21777C2.20461 8.41502 1.06219 11.1688 0.892578 14.1058H5.70039C5.85274 12.4492 6.49766 10.8959 7.56412 9.61681Z" fill="white"/>
<path d="M22.0844 14.1058H26.8922C26.7226 11.1688 25.5803 8.41502 23.6197 6.21777L20.2207 9.61681C21.2872 10.8958 21.9321 12.4492 22.0844 14.1058Z" fill="white"/>
<path d="M22.0843 15.6292C21.9775 16.8024 21.6427 17.7809 21.2467 18.5658C21.633 19.1615 21.9551 19.665 22.1678 19.9993C22.7472 20.9099 22.619 22.0788 21.8558 22.842C21.6705 23.0273 21.4589 23.1766 21.2295 23.287L22.0211 24.0786C22.1701 24.2276 22.3654 24.3021 22.5607 24.3021C22.756 24.3021 22.9512 24.2276 23.1002 24.0786C25.3815 21.7976 26.7117 18.8211 26.8937 15.6292H22.0843Z" fill="white"/>
<path d="M5.70207 15.6292H0.892578C1.07463 18.8211 2.40484 21.7976 4.68609 24.0787C4.83508 24.2277 5.03034 24.3022 5.22559 24.3022C5.42084 24.3022 5.61615 24.2276 5.76514 24.0787L8.0763 21.7674C8.37423 21.4694 8.37423 20.9863 8.0763 20.6883C7.47317 20.0852 5.95395 18.3966 5.70207 15.6292Z" fill="white"/>
<path d="M22.542 5.14089C20.3441 3.18205 17.5906 2.0411 14.6543 1.87256V6.68017C16.3105 6.8315 17.8637 7.47505 19.1429 8.53998L22.542 5.14089Z" fill="white"/>
<path d="M15.5858 13.1879C14.6526 12.2547 13.1341 12.2547 12.2009 13.1879C11.2677 14.1211 11.2677 15.6396 12.2009 16.5728C13.3798 17.7517 19.1737 21.4512 19.8305 21.8691C20.1317 22.0608 20.5256 22.0175 20.7781 21.7651C21.0305 21.5127 21.0738 21.1187 20.8821 20.8175C20.4641 20.1608 16.7647 14.3668 15.5858 13.1879Z" fill="white"/>
</g>
<defs>
<clipPath id="clip0">
<rect width="26" height="26" fill="white" transform="translate(0.892578 0.0874023)"/>
</clipPath>
</defs>
</svg>
