<svg width="27" height="27" viewBox="0 0 27 27" fill="none" xmlns="http://www.w3.org/2000/svg">
<g clip-path="url(#clip0)">
<path d="M25.5352 10.7774L20.1777 9.89128L18.6183 7.55225C18.2152 6.94815 17.5414 6.5874 16.8156 6.5874H8.80487C8.0791 6.5874 7.40518 6.94815 7.00213 7.55225L5.68431 9.52886L4.46094 8.30548C4.05784 7.90187 3.49924 7.67072 2.92902 7.67072H1.43524C1.13583 7.67072 0.893555 7.913 0.893555 8.2124C0.893555 8.51181 1.13583 8.75409 1.43524 8.75409H2.92907C3.21365 8.75409 3.49295 8.86992 3.695 9.07147L4.70936 10.0858L2.125 10.7319C1.4003 10.9128 0.893555 11.5613 0.893555 12.3082V15.0298C0.893555 15.6683 1.14218 16.2686 1.59393 16.7204C2.03933 17.1652 2.65505 17.4208 3.28454 17.4208H4.68524C4.70428 17.4208 4.72033 17.4118 4.73886 17.4099C4.98642 18.6497 6.08157 19.5874 7.39355 19.5874C8.70508 19.5874 9.80013 18.6504 10.0481 17.4113C10.0662 17.4131 10.0825 17.4218 10.1009 17.4218L17.1436 17.4207C17.1626 17.4207 17.1786 17.4118 17.1972 17.4099C17.4447 18.6497 18.5399 19.5874 19.8519 19.5874C21.1639 19.5874 22.259 18.6497 22.5066 17.4099C22.5251 17.4118 22.5411 17.4207 22.5602 17.4207H24.9342C25.3468 17.4207 25.7182 17.1917 25.9033 16.8219L26.7792 15.0689C26.7983 15.0308 26.8131 14.9906 26.8226 14.9493L26.8797 14.7071C26.8893 14.6669 26.8935 14.6256 26.8935 14.5843V12.3801C26.8936 11.5819 26.3223 10.908 25.5352 10.7774ZM7.39355 18.5041C6.49747 18.5041 5.76855 17.7752 5.76855 16.8791C5.76855 15.983 6.49747 15.2541 7.39355 15.2541C8.28964 15.2541 9.01855 15.983 9.01855 16.8791C9.01855 17.7752 8.28964 18.5041 7.39355 18.5041ZM6.78068 9.8374L7.9035 8.15314C8.10449 7.85109 8.44198 7.67072 8.80487 7.67072H16.8156C17.1785 7.67072 17.516 7.85109 17.717 8.15314L18.8398 9.8374H6.78068ZM19.8519 18.5041C18.9558 18.5041 18.2269 17.7752 18.2269 16.8791C18.2269 15.983 18.9558 15.2541 19.8519 15.2541C20.748 15.2541 21.4769 15.983 21.4769 16.8791C21.4769 17.7752 20.748 18.5041 19.8519 18.5041Z" fill="white"/>
</g>
<defs>
<clipPath id="clip0">
<rect width="26" height="26" fill="white" transform="translate(0.893555 0.0874023)"/>
</clipPath>
</defs>
</svg>
