<svg width="28" height="28" viewBox="0 0 28 28" fill="none" xmlns="http://www.w3.org/2000/svg">
<g clip-path="url(#clip0)">
<path d="M24.8786 9.44924H20.5544V2.0679C20.5544 1.40514 20.2178 0.801449 19.654 0.452985C19.0904 0.104574 18.3999 0.0734607 17.807 0.369877C17.7994 0.373673 17.792 0.377576 17.7845 0.381583L2.13418 8.80431C1.00573 9.41164 0.304688 10.5851 0.304688 11.8665V11.875V12.4023V24.742C0.304688 26.0795 1.3929 27.1677 2.73044 27.1677H24.8786C26.2161 27.1677 27.3043 26.0795 27.3043 24.742V11.875C27.3043 10.5375 26.2161 9.44924 24.8786 9.44924ZM18.6033 9.44924H5.54288C5.26893 9.44924 5.1767 9.08322 5.4179 8.95339L18.569 1.87569C18.6527 1.83719 18.7226 1.86113 18.7668 1.8885C18.8125 1.91671 18.8669 1.97076 18.8669 2.06795V9.18562C18.8669 9.33122 18.7489 9.44924 18.6033 9.44924ZM22.2419 19.996C21.3114 19.996 20.5544 19.239 20.5544 18.3085C20.5544 17.378 21.3114 16.621 22.2419 16.621C23.1724 16.621 23.9294 17.378 23.9294 18.3085C23.9294 19.239 23.1723 19.996 22.2419 19.996Z" fill="#2C80EF"/>
</g>
<defs>
<clipPath id="clip0">
<rect width="27" height="27" fill="white" transform="translate(0.303711 0.167725)"/>
</clipPath>
</defs>
</svg>
