<svg width="33" height="33" viewBox="0 0 33 33" fill="none" xmlns="http://www.w3.org/2000/svg">
<g clip-path="url(#clip0)">
<path d="M9.78516 0.748779V1.95435C9.99414 5.23462 11.4153 8.32031 13.6794 10.6936C12.3804 7.63599 11.6602 4.32812 11.6602 1.00781V0.279297L9.78516 0.748779Z" fill="white" fill-opacity="0.5"/>
<path d="M22.9104 1.87936L22.9102 0.738251L21.0354 0.276337V1.00778C21.0354 4.32736 20.3157 7.63425 19.0171 10.6916C21.2844 8.31296 22.7029 5.21335 22.9104 1.87936Z" fill="white" fill-opacity="0.5"/>
<path d="M19.1602 1.00781V0.0703125H13.5352V1.00781C13.5352 7.18579 16.2251 11.71 16.3477 12.0364C16.6191 11.3127 19.1602 7.65649 19.1602 1.00781Z" fill="white" fill-opacity="0.5"/>
<path d="M3.22266 28.2578H6.03516V24.5078H1.87354L2.29443 27.4531C2.36011 27.9146 2.75562 28.2578 3.22266 28.2578Z" fill="white" fill-opacity="0.5"/>
<path d="M0.375984 14.7141L1.60572 22.6328H6.03516V12.2578C6.03516 11.74 6.45484 11.3203 6.97266 11.3203C7.49049 11.3203 7.91016 11.74 7.91016 12.2578V25.0571L11.9348 21.0325C12.301 20.6663 12.8943 20.6663 13.2605 21.0325C13.6267 21.3987 13.6267 21.9919 13.2605 22.3582L7.91016 27.7085V31.1328C7.91016 31.6506 8.32984 32.0703 8.84766 32.0703H15.4102V14.6018L14.2849 13.7573C10.5488 10.9561 8.26759 6.67505 7.97266 2.01392V1.22534L5.97559 1.72559C5.05811 1.95898 4.31959 2.63867 4.01099 3.53369L0.501472 13.3997C0.35572 13.8215 0.312751 14.2722 0.375984 14.7141Z" fill="white" fill-opacity="0.5"/>
<path d="M26.6602 24.5078V28.2578H29.4727C29.9397 28.2578 30.3352 27.9146 30.4011 27.4531L30.8218 24.5078H26.6602Z" fill="white" fill-opacity="0.5"/>
<path d="M32.3196 14.7041C32.3811 14.2729 32.3416 13.8335 32.2039 13.4204L28.8127 3.56372C28.5085 2.65088 27.759 1.95703 26.8259 1.72388L24.7227 1.20654V1.93799C24.2002 10.396 17.5603 14.2974 17.2852 14.6016V32.0703H23.8477C24.3655 32.0703 24.7852 31.6506 24.7852 31.1328V27.7085L19.4348 22.3581C19.0686 21.9919 19.0686 21.3987 19.4348 21.0325C19.801 20.6663 20.3943 20.6663 20.7605 21.0325L24.7852 25.0571V12.2578C24.7852 11.74 25.2048 11.3203 25.7227 11.3203C26.2405 11.3203 26.6602 11.74 26.6602 12.2578V22.6328H31.0898L32.3196 14.7041Z" fill="white" fill-opacity="0.5"/>
</g>
<defs>
<clipPath id="clip0">
<rect width="32" height="32" fill="white" transform="translate(0.347656 0.0703125)"/>
</clipPath>
</defs>
</svg>
