<svg width="33" height="33" viewBox="0 0 33 33" fill="none" xmlns="http://www.w3.org/2000/svg">
<g clip-path="url(#clip0)">
<path d="M22.0928 5.24942C21.9333 4.35942 20.1988 4.22842 19.8853 5.06692C20.6248 4.94692 21.3828 5.00992 22.0928 5.24942Z" fill="white" fill-opacity="0.5"/>
<path d="M5.3097 24.4224C11.7557 25.3349 10.2782 28.4154 16.3022 27.8449C19.6557 27.4664 22.7362 25.8169 24.9102 23.2354C17.8367 22.8074 11.6412 19.5904 6.3077 20.3829C3.9062 22.0944 1.3962 23.6974 0.158203 24.7239C0.905703 24.4224 2.4917 24.0229 5.3097 24.4224Z" fill="white" fill-opacity="0.5"/>
<path d="M10.7518 19.3509C11.0603 16.8179 12.2978 10.0239 16.8618 6.73242C14.3858 7.30292 11.3738 8.52342 9.62283 11.0449C7.65483 13.8344 6.95333 17.6394 6.73633 19.1909C8.07683 19.1014 9.42283 19.1549 10.7518 19.3509Z" fill="white" fill-opacity="0.5"/>
<path d="M23.9468 22.0094C25.2988 22.1519 26.4168 22.1294 28.2138 22.2774C29.9253 22.4199 30.5468 22.6424 31.0663 22.3289C31.3728 22.1074 31.5683 21.7644 31.6023 21.3874C31.7893 20.3604 31.8678 19.3164 31.8363 18.2729C31.8363 12.7224 28.9838 8.76891 23.2793 6.78941C26.6963 11.0224 24.7853 19.1169 23.9468 22.0094Z" fill="white" fill-opacity="0.5"/>
<path d="M11.8813 19.4934C14.2203 19.9099 18.4303 21.2049 22.7998 21.8664C23.5413 19.3279 26.1143 9.17942 20.8203 6.19592C13.8608 7.59392 12.2238 16.6014 11.8813 19.4934Z" fill="white" fill-opacity="0.5"/>
</g>
<defs>
<clipPath id="clip0">
<rect width="32" height="32" fill="white" transform="translate(0.0600586 0.212921)"/>
</clipPath>
</defs>
</svg>
