<svg width="33" height="33" viewBox="0 0 33 33" fill="none" xmlns="http://www.w3.org/2000/svg">
<g clip-path="url(#clip0)">
<path d="M12.6421 26.4491C12.5706 26.248 12.4981 26.0491 12.4272 25.8451C11.4661 23.0943 10.5581 20.4966 7.63349 19.7377C6.70668 19.5014 5.73493 19.5054 4.81006 19.7491L5.1015 20.5491C5.39006 21.3419 5.79549 22.0871 6.30437 22.76L9.86037 27.4617L12.6421 26.4491Z" fill="white" fill-opacity="0.5"/>
<path d="M7.92034 18.632C11.4358 19.5434 12.5358 22.6891 13.506 25.4685C13.5752 25.6662 13.6466 25.8617 13.7163 26.0582L19.5318 23.9439L18.6358 21.4794C18.6095 21.4077 18.5978 21.3316 18.6015 21.2554C18.6065 21.2044 18.6187 21.1544 18.6375 21.1068C18.6411 21.0842 18.6465 21.0618 18.6535 21.0399L22.3535 13.1056C22.6479 12.4738 22.5222 11.7259 22.0375 11.225C21.6535 10.8212 21.0943 10.6342 20.5447 10.7258C19.9951 10.8174 19.5268 11.1757 19.2946 11.6822L18.0803 14.2839C17.8921 14.7054 17.4622 14.9661 17.0014 14.9382C16.5423 14.9191 16.1403 14.6241 15.9843 14.1919L11.6215 2.20799C11.5141 1.91543 11.29 1.68055 11.0029 1.55949C10.7157 1.43836 10.3912 1.44186 10.1067 1.56918C9.56484 1.85086 9.32316 2.4963 9.54672 3.06461L11.781 9.20518L12.4096 10.9286C12.4363 11.0004 12.4479 11.0768 12.4439 11.1532C12.4298 11.4244 12.2267 11.6482 11.9581 11.6885C11.6895 11.7289 11.4296 11.5746 11.3365 11.3194L7.69122 1.30799C7.58772 1.03036 7.37916 0.804613 7.11066 0.679425C6.84166 0.55205 6.53278 0.5383 6.25353 0.641113C5.67216 0.85355 5.37241 1.49636 5.58322 2.07824L9.22722 12.0897C9.27884 12.2322 9.27172 12.3894 9.20747 12.5267C9.14316 12.664 9.02697 12.7701 8.88441 12.8216C8.82209 12.8448 8.75609 12.8566 8.68953 12.8565C8.68384 12.8565 8.67866 12.8565 8.67353 12.8565C8.65522 12.8565 8.63866 12.8508 8.62041 12.8485C8.57159 12.8429 8.52372 12.8307 8.47809 12.8125C8.45841 12.8042 8.43934 12.7947 8.42097 12.7839C8.37966 12.7611 8.34122 12.7332 8.30666 12.7011C8.29178 12.6867 8.27634 12.6747 8.26266 12.6594C8.21597 12.6075 8.17934 12.5474 8.15466 12.4822L5.25866 4.52336C5.04309 3.94655 4.40284 3.6513 3.82416 3.86199C3.24553 4.07268 2.94491 4.71043 3.15066 5.2908L4.50153 9.00168L6.62441 14.8354C6.68841 15.0106 6.66284 15.2059 6.55597 15.3588C6.44909 15.5117 6.27434 15.6027 6.08784 15.6028C6.08153 15.6028 6.07584 15.6028 6.07016 15.6028C6.05472 15.6028 6.04103 15.5977 6.02559 15.5959C5.97334 15.5907 5.92209 15.5778 5.87359 15.5576C5.85528 15.55 5.83734 15.5414 5.81991 15.5319C5.77672 15.5085 5.73672 15.4795 5.70103 15.4456C5.68641 15.4332 5.67253 15.4201 5.65934 15.4062C5.61272 15.3542 5.57591 15.2942 5.55078 15.2291L3.42778 9.39255C3.32022 9.10043 3.09628 8.86593 2.80941 8.74493C2.52253 8.62399 2.19834 8.62736 1.91403 8.75424C1.37166 9.03574 1.12941 9.68143 1.35291 10.2502L4.41866 18.6697C5.56247 18.3511 6.76991 18.3381 7.92034 18.632Z" fill="white" fill-opacity="0.5"/>
<path d="M18.2601 11.1982C18.3113 11.0995 18.3685 11.004 18.4316 10.9125V3.93536C18.4316 3.30417 17.9199 2.79248 17.2887 2.79248C16.6562 2.79154 16.1423 3.30286 16.1401 3.93536V11.277L17.0596 13.8039L18.2601 11.1982Z" fill="white" fill-opacity="0.5"/>
<path d="M21.8699 9.77598V1.71823C21.8699 1.08392 21.3557 0.569672 20.7213 0.569672C20.0869 0.569672 19.5728 1.08392 19.5728 1.71823V9.87311C20.2895 9.51411 21.1255 9.4788 21.8699 9.77598Z" fill="white" fill-opacity="0.5"/>
<path d="M25.8757 28.5582H23.2031C23.0363 29.0401 22.6622 29.4218 22.1837 29.5982L21.8814 29.7079H24.1557C24.7882 29.707 25.3021 30.2183 25.3043 30.8508V31.4222C25.3043 31.7378 25.0485 31.9937 24.7328 31.9937C24.4173 31.9937 24.1614 31.7378 24.1614 31.4222V30.8508H18.7408L14.0151 32.5697H25.8757C26.1913 32.5697 26.4472 32.3138 26.4472 31.9982V29.1296C26.4472 28.8141 26.1913 28.5582 25.8757 28.5582Z" fill="white" fill-opacity="0.5"/>
<path d="M31.7489 15.6211V15.6228C31.0752 14.9565 29.9902 14.9582 29.3186 15.6268L27.2575 17.6931C26.9307 18.0217 26.4379 18.1204 26.0098 17.943C25.5817 17.7656 25.303 17.3474 25.3044 16.8839V3.93536C25.3037 3.6178 25.1709 3.31486 24.9378 3.09911C24.7047 2.88342 24.3924 2.77436 24.0758 2.79817C23.4568 2.87498 22.997 3.40892 23.0129 4.03248V10.6159C23.706 11.4486 23.8534 12.6077 23.3906 13.5874L19.79 21.3079L20.6432 23.6508C21.3617 23.6502 22.0043 24.0978 22.2529 24.7719L23.2083 27.3965C23.2083 27.4016 23.2083 27.4074 23.2123 27.4125H25.2757V24.6039V24.5999C25.2767 24.5312 25.2903 24.4632 25.3157 24.3994C25.3444 24.3238 25.3885 24.255 25.4454 24.1977V24.1942L31.7574 18.0554C32.4215 17.3784 32.4177 16.2934 31.7489 15.6211Z" fill="white" fill-opacity="0.5"/>
<path d="M22.1133 28.2276C22.1776 28.0902 22.1846 27.9329 22.1328 27.7903L21.1785 25.1663C21.0962 24.9403 20.8813 24.7899 20.6408 24.7903C20.5744 24.7901 20.5084 24.8018 20.4459 24.8246L9.83793 28.684L9.33105 28.8686L10.6768 32.5697L21.7899 28.5228C21.9327 28.4713 22.049 28.3651 22.1133 28.2276ZM20.5568 28.3874H20.5562C20.4137 28.439 20.2565 28.4319 20.1192 28.3676C19.9819 28.3033 19.8758 28.1871 19.8242 28.0446L19.6311 27.5143L11.6882 30.4137C11.4953 30.4882 11.2772 30.4526 11.1179 30.3208C10.9587 30.1889 10.8831 29.9812 10.9203 29.7778C10.9575 29.5744 11.1017 29.407 11.2974 29.34L19.2511 26.4446C19.84 26.2337 20.4888 26.5373 20.7042 27.1246L20.8973 27.6549C21.0056 27.9512 20.8531 28.2791 20.5568 28.3874Z" fill="white" fill-opacity="0.5"/>
</g>
<defs>
<clipPath id="clip0">
<rect width="32" height="32" fill="white" transform="translate(0.761719 0.569672)"/>
</clipPath>
</defs>
</svg>
