<svg width="33" height="33" viewBox="0 0 33 33" fill="none" xmlns="http://www.w3.org/2000/svg">
<g clip-path="url(#clip0)">
<path d="M31.6051 11.8628C29.337 10.6315 26.954 9.76995 24.323 9.85793C22.8162 9.90881 21.3569 10.273 19.898 10.6203C19.0922 10.8117 18.2864 11.0067 17.4848 11.2169C17.2403 11.2813 16.9998 11.3091 16.7617 11.3184C16.5237 11.3096 16.2832 11.2813 16.0389 11.2169C15.2371 11.0067 14.4315 10.8117 13.6255 10.6203C12.1663 10.2733 10.7073 9.90881 9.20044 9.85793C6.56923 9.76995 4.18629 10.6318 1.91832 11.8628C0.886055 12.4231 0.6172 12.9203 0.828904 13.8332C1.08068 14.9187 1.4161 15.9928 1.8972 16.9939C2.32435 17.8834 2.79242 18.7579 3.31419 19.6074C4.15926 20.9824 5.0727 22.2237 6.66784 22.7966C7.63602 23.1441 8.62393 23.3379 9.64859 23.2762C10.2194 23.2416 10.7365 22.9973 11.2461 22.7447C11.7523 22.4935 12.2694 22.2619 12.7246 21.9226C13.1765 21.5854 13.657 21.2714 14.0493 20.872C14.0493 20.872 15.6722 19.2925 16.7617 19.0497C17.8519 19.2928 19.4742 20.872 19.4742 20.872C19.8665 21.2714 20.3471 21.5854 20.7994 21.9226C21.2542 22.2619 21.7719 22.4932 22.2777 22.7447C22.787 22.9973 23.3041 23.2415 23.8753 23.2762C24.9 23.3378 25.8878 23.1441 26.8561 22.7966C28.4511 22.224 29.365 20.9824 30.2094 19.6074C30.7313 18.7582 31.1991 17.8834 31.6264 16.9939C32.1072 15.9928 32.4426 14.919 32.6947 13.8332C32.9061 12.9203 32.6372 12.4231 31.6051 11.8628ZM8.78796 18.0056C6.7402 17.3091 5.67794 14.9861 5.67794 14.9861C5.67794 14.9861 7.93595 13.793 9.98371 14.4893C12.0315 15.1855 13.0933 17.5085 13.0933 17.5085C13.0933 17.5085 10.8354 18.7019 8.78796 18.0056ZM24.7356 18.0056C22.688 18.7019 20.4297 17.5085 20.4297 17.5085C20.4297 17.5085 21.4921 15.1856 23.54 14.4893C25.5873 13.7931 27.8454 14.9862 27.8454 14.9862C27.8454 14.9862 26.7836 17.3091 24.7356 18.0056Z" fill="white" fill-opacity="0.5"/>
</g>
<defs>
<clipPath id="clip0">
<rect width="32" height="32.0001" fill="white" transform="translate(0.761719 0.569641)"/>
</clipPath>
</defs>
</svg>
