<svg width="33" height="33" viewBox="0 0 33 33" fill="none" xmlns="http://www.w3.org/2000/svg">
<g clip-path="url(#clip0)">
<path d="M13.5432 7.32963C13.6013 7.59137 13.7035 7.83405 13.8291 8.06292C10.3717 9.11688 7.84802 12.2881 7.84802 16.0958C7.84802 16.5833 7.88559 17.052 7.97927 17.5208C8.99167 16.1146 10.3791 14.9708 11.9916 14.2396C12.6853 12.5897 14.3539 11.4085 16.2851 11.4085C18.2164 11.4085 19.885 12.5897 20.5787 14.2396C20.8412 14.8209 20.9725 15.4396 20.9725 16.0958C20.9725 18.7384 18.8268 20.7831 16.2851 20.7831C14.7289 20.7831 13.4728 22.0393 13.4728 23.5955C13.4728 23.7643 13.4915 23.9142 13.5291 24.0643C14.3915 24.3642 15.3289 24.533 16.2851 24.533C21.0398 24.533 24.7223 20.6694 24.7223 16.0958C24.7223 12.2881 22.1987 9.11688 18.7413 8.06292C18.8669 7.83405 18.969 7.59131 19.0272 7.32963C22.3102 6.57472 25.1342 4.45336 26.8408 1.50353C27.1008 1.05493 26.947 0.481822 26.4993 0.222769C26.0471 -0.0390337 25.4758 0.115648 25.2186 0.564256C23.8044 3.00773 21.4875 4.7926 18.7877 5.46458C18.3242 4.54623 17.3822 3.90882 16.2851 3.90882C15.1881 3.90882 14.2461 4.54623 13.7826 5.46458C11.0829 4.79254 8.76599 3.00767 7.35179 0.564256C7.09361 0.115648 6.52051 -0.0390337 6.07103 0.222769C5.62336 0.481885 5.46955 1.05493 5.72954 1.50353C7.43616 4.45336 10.2601 6.57466 13.5432 7.32963Z" fill="white" fill-opacity="0.5"/>
<path d="M16.2853 18.9082C17.8416 18.9082 19.0977 17.652 19.0977 16.0958C19.0977 15.927 19.079 15.7771 19.0414 15.627C18.179 15.3271 17.2415 15.1583 16.2853 15.1583C11.5307 15.1583 7.84814 19.0219 7.84814 23.5955C7.84814 28.2641 11.6168 32.0952 16.2853 32.0952C20.9539 32.0952 24.7225 28.2641 24.7225 23.5955C24.7225 23.108 24.685 22.6393 24.5913 22.1705C23.5789 23.5767 22.1914 24.7204 20.5789 25.4517C19.8852 27.1016 18.2166 28.2828 16.2854 28.2828C13.661 28.2828 11.5981 26.132 11.5981 23.5955C11.598 20.93 13.7824 18.9082 16.2853 18.9082Z" fill="white" fill-opacity="0.5"/>
</g>
<defs>
<clipPath id="clip0">
<rect width="32" height="32" fill="white" transform="translate(0.285156 0.0952759)"/>
</clipPath>
</defs>
</svg>
