<svg width="33" height="33" viewBox="0 0 33 33" fill="none" xmlns="http://www.w3.org/2000/svg">
<g clip-path="url(#clip0)">
<path d="M7.67627 32.1611H16.3564H25.0365V31.0037H7.67627V32.1611Z" fill="white" fill-opacity="0.5"/>
<path d="M25.7882 2.93294C25.499 2.71028 25.1701 2.54458 24.819 2.4447L21.4058 1.4693C21.3111 1.44221 21.2249 1.39145 21.1554 1.32183L20.3128 0.479279C19.0939 1.12815 17.7372 1.47525 16.3565 1.49139C14.9758 1.47525 13.619 1.12815 12.4001 0.479279L11.5575 1.32183C11.488 1.39151 11.4018 1.44227 11.3072 1.46936L7.89395 2.4447C7.54287 2.54458 7.214 2.71028 6.92475 2.93294L0.356445 7.98564L4.33539 13.955L5.44149 13.0699L2.56548 8.75648C2.392 8.49072 2.46497 8.13476 2.72909 7.95868C2.99321 7.7826 3.3498 7.85216 3.52841 8.11451L6.34854 12.3442L6.73601 12.0342C6.90975 11.8952 7.1478 11.8681 7.34837 11.9645C7.54894 12.0609 7.67641 12.2638 7.67641 12.4862V29.8465H25.0367V12.4862C25.0367 12.2636 25.1641 12.0609 25.3647 11.9645C25.5652 11.8681 25.8033 11.8952 25.9771 12.0341L26.3645 12.3441L29.1846 8.11445C29.3626 7.85026 29.7205 7.77956 29.9856 7.95628C30.2506 8.13299 30.323 8.49059 30.1476 8.75642L27.2716 13.0699L28.3777 13.9549L32.3566 7.98558L25.7882 2.93294Z" fill="white" fill-opacity="0.5"/>
</g>
<defs>
<clipPath id="clip0">
<rect width="32" height="32" fill="white" transform="translate(0.356445 0.32019)"/>
</clipPath>
</defs>
</svg>
