<svg width="33" height="20" viewBox="0 0 33 20" fill="none" xmlns="http://www.w3.org/2000/svg">
<path d="M22.5348 16.9275C20.1245 16.9275 17.7435 16.541 15.4577 15.779C13.7467 15.2085 11.9642 14.9192 10.1598 14.9192H2.2893C1.55182 14.9192 0.880082 14.6334 0.377968 14.1674C0.358656 14.3147 0.347656 14.4646 0.347656 14.6171V18.1316C0.347656 18.6493 0.767397 19.069 1.28514 19.069H8.90259C10.0686 19.069 11.1649 18.6149 11.9895 17.7903C11.9905 17.7892 11.9916 17.7882 11.9926 17.7872C12.3368 17.4451 12.8496 17.3405 13.3001 17.5207L15.2081 18.2841C16.5113 18.8049 17.8831 19.069 19.2854 19.069H25.3846C27.9321 19.069 30.1639 17.6936 31.3776 15.6465C29.9281 16.482 28.2789 16.9274 26.561 16.9274H22.5348V16.9275Z" fill="white" fill-opacity="0.5"/>
<path d="M16.0518 14.0004C17.0153 14.3216 17.9975 14.5691 18.9921 14.7437L17.5789 13.9813C15.8336 13.0573 13.8818 12.024 12.0794 11.0701C11.0643 10.5327 9.82291 10.5668 8.83949 11.1591C8.13001 11.586 7.61433 12.2671 7.38184 13.0444H10.1608C12.1672 13.0444 14.1492 13.3661 16.0518 14.0004Z" fill="white" fill-opacity="0.5"/>
<path d="M28.3978 8.15704C26.6859 8.15704 25.0266 7.67448 23.5834 6.76162L22.2073 9.51377C21.9757 9.97689 21.4126 10.1646 20.9495 9.93302C20.4864 9.70146 20.2987 9.13834 20.5302 8.67522L22.0093 5.71706C21.5442 5.40701 21.0597 5.08407 20.5691 4.75695L19.1948 7.50542C18.9633 7.96854 18.4002 8.15622 17.9371 7.92466C17.4739 7.6931 17.2863 7.12999 17.5178 6.66687L18.9968 3.70877C18.5041 3.38028 18.0197 3.05728 17.5566 2.7486L16.1824 5.49707C15.9508 5.96019 15.3877 6.14787 14.9246 5.91631C14.4615 5.68475 14.2738 5.12163 14.5054 4.65851L15.9844 1.70036C14.7196 0.857118 13.8556 0.281062 13.8556 0.281062C13.4839 0.0331893 12.9887 0.0821888 12.6727 0.398185L10.8386 2.23229C10.0007 3.07028 8.63738 3.07016 7.79946 2.23229C7.54215 1.94279 6.34837 0.943055 4.67203 1.4073C3.5598 1.71548 2.69526 2.60241 2.41577 3.72171L1.38054 7.86273C1.36191 7.9371 1.35254 8.01348 1.35254 8.09016V12.1068C1.35254 12.6246 1.77228 13.0443 2.29002 13.0443H5.45651C5.72482 11.6059 6.59949 10.3183 7.87221 9.55246C9.4153 8.62303 11.3637 8.56941 12.9563 9.41277C14.7586 10.3666 16.7105 11.4001 18.4559 12.3242L21.1532 13.7522C22.7606 14.6028 24.5712 15.0525 26.3889 15.0526H26.5617C28.6437 15.0526 30.601 14.2418 32.0731 12.7697C32.2489 12.5939 32.3477 12.3544 32.3477 12.1057C32.3477 9.92852 30.5763 8.15704 28.3978 8.15704Z" fill="white" fill-opacity="0.5"/>
</svg>
