<svg width="33" height="33" viewBox="0 0 33 33" fill="none" xmlns="http://www.w3.org/2000/svg">
<g clip-path="url(#clip0)">
<path d="M32.2087 13.4644C32.7027 13.2174 32.9029 12.6167 32.6559 12.1228C32.409 11.6289 31.8083 11.4288 31.3143 11.6756L30.88 11.8928C30.2222 11.1904 29.4075 10.615 28.4609 10.227C26.7508 9.52603 24.4944 9.37353 22.4253 9.81903C20.5221 10.2288 19.0553 11.0776 18.1788 12.2543C17.7199 12.132 17.2459 12.0701 16.7617 12.0701C16.2775 12.0701 15.8035 12.132 15.3446 12.2543C14.4681 11.0776 13.0013 10.2288 11.0981 9.81903C9.02898 9.37353 6.7727 9.52603 5.06253 10.227C4.11592 10.615 3.30124 11.1904 2.64344 11.8928L2.20913 11.6756C1.7152 11.4285 1.11446 11.6289 0.867523 12.1228C0.620526 12.6167 0.820711 13.2174 1.31471 13.4644L1.49202 13.553C0.636026 15.277 0.495403 17.3467 1.27939 19.264C1.97976 20.9769 3.30455 22.3142 5.00985 23.0297C5.87152 23.3912 6.77814 23.572 7.68512 23.572C8.57324 23.572 9.46173 23.3986 10.3085 23.0515C12.0184 22.3507 13.7336 20.8755 14.8965 19.1055C16.0326 17.3762 16.471 15.6393 16.1731 14.1195C16.366 14.087 16.5624 14.07 16.7618 14.07C16.9613 14.07 17.1577 14.087 17.3506 14.1195C17.0526 15.6393 17.491 17.3762 18.6271 19.1055C19.79 20.8755 21.5053 22.3507 23.2152 23.0515C24.062 23.3986 24.9503 23.572 25.8385 23.572C26.7454 23.572 27.6522 23.3911 28.5138 23.0297C30.219 22.3142 31.5438 20.9769 32.2442 19.264C33.0282 17.3467 32.8876 15.277 32.0316 13.553L32.2087 13.4644ZM7.16813 13.6925C6.12414 13.6862 5.26897 14.5315 5.26178 15.5768C5.25797 16.1291 4.80716 16.5737 4.25498 16.5699C4.12111 16.5689 3.99361 16.5418 3.87723 16.4933C3.51349 16.3416 3.25899 15.9815 3.26187 15.5631C3.27662 13.4159 5.03435 11.6797 7.18013 11.6926C7.73244 11.696 8.17743 12.1463 8.17412 12.6986C8.17081 13.2509 7.72037 13.6959 7.16813 13.6925ZM24.1795 13.2599C23.5721 13.2305 22.7743 13.4615 22.1469 13.8485C21.5557 14.2131 21.1916 14.6649 21.1729 15.057C21.153 15.475 20.8792 15.8208 20.5078 15.9524C20.389 15.9945 20.2602 16.0147 20.1265 16.0083C19.5748 15.9821 19.1489 15.5136 19.1752 14.9619C19.2269 13.8787 19.9094 12.8787 21.0971 12.1462C22.0743 11.5436 23.2627 11.2132 24.2764 11.2623C24.828 11.289 25.2535 11.7578 25.2268 12.3095C25.2 12.8611 24.7312 13.2866 24.1795 13.2599Z" fill="white" fill-opacity="0.5"/>
</g>
<defs>
<clipPath id="clip0">
<rect width="32" height="32" fill="white" transform="translate(0.761719 0.569672)"/>
</clipPath>
</defs>
</svg>
