<svg width="32" height="33" viewBox="0 0 32 33" fill="none" xmlns="http://www.w3.org/2000/svg">
<path d="M11.9311 4.49526V3.63901H10.0248L9.7498 6.15151C9.74355 6.19526 9.74355 6.23276 9.7373 6.27651H10.1498C11.1311 6.27651 11.9311 5.48276 11.9311 4.49526Z" fill="white" fill-opacity="0.5"/>
<path d="M9.15625 29.6953H11.4312V31.0765H9.15625V29.6953Z" fill="white" fill-opacity="0.5"/>
<path d="M17.3437 3.01397H22.1562V1.56396H10.0562V3.01397H16.0437H17.3437Z" fill="white" fill-opacity="0.5"/>
<path d="M20.2437 4.49526C20.2437 5.47651 21.0437 6.27651 22.0249 6.27651H22.4437L22.1874 3.63901H20.2437V4.49526Z" fill="white" fill-opacity="0.5"/>
<path d="M17.0314 6.97651V3.63901H16.3564V7.90776C16.7627 7.77651 17.0314 7.40151 17.0314 6.97651Z" fill="white" fill-opacity="0.5"/>
<path d="M22.5063 6.99526L22.5 6.90151H22.0187C20.6937 6.90151 19.6187 5.82651 19.6125 4.49526V3.63901H17.65V6.97026C17.65 7.85776 16.9313 8.58276 16.0375 8.58276C15.8625 8.58276 15.725 8.44526 15.725 8.27026V3.63901H12.55V4.49526C12.55 5.82026 11.475 6.89526 10.1438 6.90151H9.66875C8.9125 14.0953 8.525 21.3265 8.5 28.5578V28.5765C8.5 28.8453 8.71875 29.0703 8.9875 29.0703H11.6625C11.9125 29.0703 12.1187 28.889 12.15 28.639L13.2125 20.2765C13.3875 18.9078 13.65 17.5515 14.0063 16.214V16.2078L15.7125 10.4015C15.75 10.2703 15.875 10.1765 16.0125 10.1765C16.15 10.1765 16.275 10.2703 16.3125 10.4015L18 16.4078V16.414C18.3125 17.6328 18.5437 18.8765 18.7062 20.1203L19.7875 28.6328C19.8188 28.8765 20.025 29.0578 20.275 29.064H23C23.2688 29.064 23.4875 28.8453 23.4937 28.5765C23.5312 21.3765 23.2 14.1703 22.5063 6.99526ZM18.6812 16.5078C18.6625 16.4265 18.6437 16.3515 18.6187 16.2703C18.575 16.1015 18.675 15.9328 18.8438 15.889C19.0125 15.8453 19.1813 15.9453 19.225 16.114V16.1203C19.2438 16.2015 19.2688 16.2828 19.2875 16.364C19.3313 16.5328 19.225 16.7015 19.0562 16.7453C18.8875 16.7765 18.7188 16.6703 18.6812 16.5078ZM19.6875 20.3203C19.5188 20.339 19.3625 20.2203 19.3375 20.0515C19.2312 19.214 19.0875 18.3703 18.9125 17.539C18.875 17.3703 18.9812 17.2015 19.15 17.164C19.3187 17.1265 19.4875 17.2328 19.525 17.4015V17.4078C19.7062 18.2578 19.85 19.1203 19.9562 19.9703C19.9812 20.1453 19.8625 20.3015 19.6875 20.3203Z" fill="white" fill-opacity="0.5"/>
<path d="M20.5498 29.6953H22.8248V31.0765H20.5498V29.6953Z" fill="white" fill-opacity="0.5"/>
</svg>
