<svg width="33" height="33" viewBox="0 0 33 33" fill="none" xmlns="http://www.w3.org/2000/svg">
<g clip-path="url(#clip0)">
<path d="M14.3476 8.15819C15.8948 8.15819 17.347 8.5723 18.5994 9.29542V1.62305C18.5994 1.04132 18.1278 0.569672 17.5461 0.569672H11.1491C10.5673 0.569672 10.0957 1.04126 10.0957 1.62305V9.29535C11.3482 8.5723 12.8004 8.15819 14.3476 8.15819ZM14.3476 3.40143C14.8686 3.40143 15.2909 3.82378 15.2909 4.34478C15.2909 4.86579 14.8686 5.28814 14.3476 5.28814C13.8266 5.28814 13.4042 4.86579 13.4042 4.34478C13.4042 3.82378 13.8266 3.40143 14.3476 3.40143Z" fill="white" fill-opacity="0.5"/>
<path d="M21.0039 16.6888C21.0039 13.0185 18.0179 10.0325 14.3477 10.0325C10.6774 10.0325 7.69141 13.0185 7.69141 16.6888C7.69141 20.3591 10.6773 23.3451 14.3477 23.3451C18.018 23.3451 21.0039 20.3591 21.0039 16.6888ZM12.2171 20.0377C11.9966 20.0377 11.7752 19.9603 11.597 19.8029C11.2091 19.4602 11.1724 18.868 11.515 18.48L13.4091 16.3357L13.3955 12.7434C13.3936 12.2258 13.8116 11.8046 14.3291 11.8026H14.3328C14.8487 11.8026 15.2679 12.2199 15.2699 12.7362L15.2849 16.6852C15.2858 16.915 15.2022 17.137 15.0501 17.3092L12.9198 19.7209C12.7346 19.9306 12.4765 20.0377 12.2171 20.0377Z" fill="white" fill-opacity="0.5"/>
<path d="M23.4915 15.7516H22.8267C22.8605 16.0595 22.8784 16.372 22.8784 16.6887C22.8784 17.0054 22.8605 17.318 22.8267 17.6259H23.4915C24.009 17.6259 24.4286 17.2063 24.4286 16.6887C24.4286 16.1712 24.0091 15.7516 23.4915 15.7516Z" fill="white" fill-opacity="0.5"/>
<path d="M14.3476 25.2195C12.8004 25.2195 11.3481 24.8054 10.0957 24.0822V31.5164C10.0957 32.0981 10.5673 32.5698 11.1491 32.5698H17.5462C18.1279 32.5698 18.5996 32.0982 18.5996 31.5164V24.0822C17.3471 24.8054 15.8948 25.2195 14.3476 25.2195Z" fill="white" fill-opacity="0.5"/>
</g>
<defs>
<clipPath id="clip0">
<rect width="32" height="32" fill="white" transform="translate(0.0600586 0.569672)"/>
</clipPath>
</defs>
</svg>
