<svg width="30" height="30" viewBox="0 0 30 30" fill="none" xmlns="http://www.w3.org/2000/svg">
<g clip-path="url(#clip0)">
<path d="M28.4249 20.2628L15.8789 12.9924V12.4515C15.8789 11.8346 16.2309 11.2608 16.7977 10.954C18.0745 10.2629 18.8334 8.93169 18.7783 7.47998C18.7038 5.51761 17.1084 3.92199 15.1465 3.84751C14.1083 3.80767 13.1252 4.18244 12.3781 4.90156C11.6306 5.62121 11.2189 6.58894 11.2189 7.6264C11.2189 8.11179 11.6124 8.50531 12.0978 8.50531C12.5832 8.50531 12.9767 8.11179 12.9767 7.6264C12.9767 7.07105 13.1971 6.55314 13.5972 6.16789C13.9969 5.78316 14.5228 5.58236 15.0797 5.60404C16.1289 5.64388 16.9819 6.49718 17.0218 7.54666C17.0513 8.3246 16.6448 9.03787 15.9609 9.40812C14.8261 10.0224 14.1211 11.1885 14.1211 12.4515V12.9924L1.57506 20.2628C0.603516 20.8258 0 21.8732 0 22.9962C0 24.7382 1.41691 26.1553 3.15855 26.1553H26.8414C28.5831 26.1553 30 24.7381 30 22.9962C30 21.8732 29.3965 20.8258 28.4249 20.2628ZM26.8414 24.3975H3.15855C2.38617 24.3975 1.75781 23.7688 1.75781 22.9962C1.75781 22.498 2.02547 22.0334 2.45643 21.7838L15 14.5148L27.5436 21.7838C27.9745 22.0335 28.2422 22.498 28.2422 22.9962C28.2422 23.7689 27.6138 24.3975 26.8414 24.3975Z" fill="white"/>
</g>
<defs>
<clipPath id="clip0">
<rect width="30" height="30" fill="white"/>
</clipPath>
</defs>
</svg>
