<svg width="30" height="30" viewBox="0 0 30 30" fill="none" xmlns="http://www.w3.org/2000/svg">
<path d="M21.1816 29.1211C21.1816 29.6065 21.5752 30 22.0605 30C22.5459 30 22.9395 29.6065 22.9395 29.1211C22.9395 22.9716 20.3873 19.3633 17.4664 16.2611C17.2648 16.464 17.0638 16.6649 16.8644 16.8644C16.6489 17.0798 16.4354 17.2935 16.2243 17.5061C16.5179 17.8188 16.8058 18.1349 17.0856 18.457H12.9143C13.7631 17.48 14.6852 16.5576 15.6214 15.6214C19.2192 12.0237 22.9395 8.3035 22.9395 0.878906C22.9395 0.393516 22.5459 0 22.0605 0C21.5752 0 21.1816 0.393516 21.1816 0.878906C21.1816 1.18119 21.1747 1.47633 21.1615 1.76514H8.83852C8.82533 1.47633 8.81836 1.18119 8.81836 0.878906C8.81836 0.393516 8.42484 0 7.93945 0C7.45406 0 7.06055 0.393516 7.06055 0.878906C7.06055 7.02844 9.61271 10.6367 12.5336 13.7389C12.7352 13.536 12.9362 13.3351 13.1356 13.1356C13.3511 12.9202 13.5646 12.7065 13.7757 12.4939C13.4914 12.1912 13.2125 11.8852 12.9411 11.5737H17.059C16.2176 12.5394 15.3049 13.4522 14.3786 14.3785C10.7808 17.9763 7.06055 21.6965 7.06055 29.1211C7.06055 29.6065 7.45406 30 7.93945 30C8.42484 30 8.81836 29.6065 8.81836 29.1211C8.81836 28.8295 8.82504 28.5447 8.83729 28.2656H21.1627C21.175 28.5447 21.1816 28.8295 21.1816 29.1211ZM18.4692 20.2148C18.9713 20.9321 19.424 21.6928 19.8097 22.5172H10.1904C10.5761 21.6928 11.0287 20.9321 11.5309 20.2148H18.4692ZM20.9926 3.52295C20.8733 4.3183 20.7002 5.05934 20.4815 5.75572H9.5185C9.29982 5.05934 9.12662 4.31824 9.00738 3.52295H20.9926ZM11.5527 9.81592C11.0481 9.09844 10.5929 8.33795 10.2048 7.51354H19.7952C19.4071 8.33795 18.9519 9.09844 18.4473 9.81592H11.5527ZM9.00287 26.5078C9.12053 25.7125 9.29209 24.9715 9.509 24.275H20.491C20.7079 24.9715 20.8795 25.7125 20.9971 26.5078H9.00287Z" fill="white"/>
</svg>
