<svg width="30" height="30" viewBox="0 0 30 30" fill="none" xmlns="http://www.w3.org/2000/svg">
<g clip-path="url(#clip0)">
<path d="M28.9367 11.9488C29.0324 13.8593 28.8884 15.7744 28.5083 17.6495C27.8118 15.6742 26.3363 12.7416 23.4086 10.8739C20.4207 8.96797 16.6317 8.63471 12.1879 9.87208C10.9487 10.082 9.68201 10.0669 8.4483 9.82722C8.42221 9.82516 8.39589 9.82516 8.36957 9.82722C8.33226 9.82287 8.29449 9.82287 8.25718 9.82722C8.22148 9.83408 8.18668 9.84484 8.15327 9.8588C8.12649 9.86498 8.10017 9.87299 8.07453 9.88283C6.68747 10.6366 3.68423 12.8856 3.65951 18.2189C2.26238 16.2253 0.0700924 11.8822 1.67734 5.75461C1.99183 6.13914 2.33929 6.49575 2.71558 6.82009C6.32308 9.87047 11.425 7.6656 14.7695 6.21903C22.6014 3.43598 26.7591 7.75235 28.8676 11.8625C28.8873 11.8938 28.9104 11.9227 28.9367 11.9488ZM14.3751 5.21879C11.8466 6.31173 8.27595 7.85191 5.36198 7.02952C5.00263 5.48247 5.38716 3.3593 6.52038 0.694589C7.07749 1.62616 8.06263 2.89535 9.43527 3.2222C10.4991 3.47512 11.5781 3.1327 12.642 2.20433C16.0128 -0.74008 20.7616 -0.734129 24.4533 2.21761C26.625 4.03338 28.0905 6.55389 28.5939 9.33968C26.2361 5.99449 21.8588 2.56002 14.3751 5.21879Z" fill="white"/>
<path d="M7.29013 28.3344C8.9546 28.0023 10.3533 26.8815 11.0402 25.3296C11.1194 25.165 11.194 24.9979 11.268 24.8309C11.4273 24.425 11.6349 24.0396 11.8862 23.6832C12.1622 23.314 12.5951 23.0945 13.0563 23.0902C13.8617 23.1158 14.6203 23.4761 15.1488 24.0847C15.4504 24.3948 15.6926 24.7581 15.8629 25.1561C15.8137 25.439 15.9966 25.7105 16.2772 25.7711C16.558 25.832 16.8368 25.6606 16.9091 25.3827C17.2001 24.4665 17.8439 23.7038 18.6984 23.2632C19.1793 22.994 19.7565 22.9583 20.2672 23.1657C20.9099 23.4429 21.2942 24.2609 21.6354 24.9831L21.7922 25.3113C22.1942 26.2582 22.8536 27.0733 23.6957 27.6638C24.1821 27.963 24.7151 28.1777 25.2729 28.2992L25.3345 28.3136L25.4728 28.3457C23.7467 29.5652 20.0779 31.4144 16.7617 28.2193C16.5544 28.0193 16.2257 28.0193 16.0183 28.2193C12.6834 31.4299 9.00656 29.5569 7.29013 28.3344Z" fill="white"/>
</g>
<defs>
<clipPath id="clip0">
<rect width="30" height="30" fill="white"/>
</clipPath>
</defs>
</svg>
