<svg width="30" height="30" viewBox="0 0 30 30" fill="none" xmlns="http://www.w3.org/2000/svg">
<g clip-path="url(#clip0)">
<path d="M29.9981 23.4586C29.9634 22.0897 29.3957 20.8098 28.3992 19.8549C27.5806 19.0703 26.549 18.5785 25.4404 18.4318C26.5355 17.3531 27.1714 15.8476 27.1279 14.2379C27.0457 11.1918 24.5938 8.77252 21.5459 8.73009C20.0181 8.70947 18.576 9.28796 17.4882 10.3607C16.4002 11.4337 15.801 12.8661 15.801 14.394C15.801 15.9561 16.4035 17.3893 17.4986 18.4379C16.6442 18.5704 15.7694 18.9361 15.0207 19.4733C14.2867 18.9103 13.424 18.5529 12.5083 18.4318C13.6035 17.3531 14.2393 15.8475 14.1958 14.2379C14.1407 12.1957 13.0204 10.4353 11.3695 9.48396C11.4891 9.15566 11.5523 8.80638 11.5523 8.45019C11.5523 6.78579 10.1982 5.43169 8.53384 5.43169C6.86943 5.43169 5.51534 6.78579 5.51534 8.45019C5.51534 8.80749 5.57891 9.15771 5.69926 9.48683C5.28788 9.72542 4.9038 10.0177 4.55605 10.3606C3.46803 11.4336 2.86885 12.866 2.86885 14.394C2.86885 15.952 3.4682 17.3817 4.55786 18.4296C3.4508 18.5765 2.42032 19.0677 1.60241 19.8512C0.605621 20.8061 0.0372068 22.0861 0.0018164 23.4557C0.00158202 23.47 0 29.3754 0 29.3754H30C30 29.3754 29.9985 23.4725 29.9981 23.4586ZM20.1251 18.0649C19.6531 17.8925 19.1511 17.5774 18.7478 17.2005C17.9872 16.4897 17.5783 15.5455 17.5606 14.4669H17.6409C18.8643 14.4669 20.6659 13.73 21.4634 13.3747C22.2609 13.73 24.0625 14.4669 25.286 14.4669H25.3712C25.3408 16.0774 24.3286 17.5087 22.8061 18.0649L22.2288 18.2758V19.7803C22.2288 20.2012 21.8865 20.5435 21.4656 20.5435C21.0448 20.5435 20.7025 20.2012 20.7025 19.7803V18.2758L20.1251 18.0649ZM21.4654 10.4873C21.484 10.4873 21.5028 10.4874 21.5215 10.4877C23.0492 10.509 24.3592 11.3966 24.9829 12.6863C24.0791 12.5664 22.6306 11.9922 21.8439 11.6149L21.4634 11.4322L21.0829 11.6149C20.299 11.9915 18.8562 12.564 17.9504 12.6856C18.1421 12.2919 18.4011 11.9293 18.7225 11.6123C19.4595 10.8855 20.4315 10.4873 21.4654 10.4873ZM7.19299 18.0649C6.72096 17.8925 6.21893 17.5774 5.81569 17.2005C5.05509 16.4897 4.64628 15.5456 4.62853 14.4669H4.7088C5.95069 14.4669 8.24913 14.2688 9.70289 13.5636C10.2461 13.835 11.2117 14.2341 12.4395 14.3953C12.4382 16.0348 11.419 17.5005 9.87399 18.0649L9.29666 18.2758V19.7803C9.29666 20.2012 8.9543 20.5435 8.53349 20.5435C8.11267 20.5435 7.77031 20.2012 7.77031 19.7803V18.2758L7.19299 18.0649ZM5.00827 12.7053C5.20093 12.304 5.46366 11.9346 5.79049 11.6122C6.52748 10.8855 7.49949 10.4873 8.53337 10.4873C8.552 10.4873 8.57081 10.4874 8.58944 10.4877C10.0516 10.508 11.314 11.3219 11.9666 12.5222C10.8811 12.2631 10.1848 11.8256 10.1771 11.8207L9.68584 11.5006L9.20163 11.8313C8.44706 12.3467 6.54272 12.6675 5.00827 12.7053ZM7.27326 8.45025C7.27326 7.7551 7.8388 7.18956 8.53395 7.18956C9.22911 7.18956 9.79465 7.7551 9.79465 8.45025C9.79465 8.58918 9.77069 8.72523 9.72697 8.85437C9.36762 8.77802 8.99544 8.73543 8.61388 8.73009C8.18058 8.72406 7.75425 8.76636 7.34099 8.85443C7.29728 8.72529 7.27326 8.58923 7.27326 8.45025ZM1.75798 27.6176C1.75821 25.9145 1.75874 23.6515 1.75938 23.4934C1.8113 21.6434 3.38025 20.1402 5.26104 20.1402H5.26227L6.03858 20.1403C6.21383 21.3604 7.26564 22.3014 8.53349 22.3014C9.80063 22.3014 10.852 21.3615 11.0281 20.1423L11.8083 20.1425C13.6891 20.1432 15.2577 21.6465 15.3086 23.4958C15.3092 23.6521 15.3097 25.9147 15.3099 27.6176H1.75798V27.6176ZM17.0677 27.6176C17.0672 23.5053 17.0664 23.4716 17.066 23.4586C17.0416 22.492 16.7502 21.5705 16.231 20.7758C16.8485 20.3788 17.5631 20.1402 18.1935 20.1402H18.1944L18.9707 20.1403C19.146 21.3604 20.1977 22.3014 21.4656 22.3014C22.7327 22.3014 23.7841 21.3615 23.9602 20.1423L24.7404 20.1425C26.6212 20.1432 28.1898 21.6465 28.2406 23.4958C28.2413 23.6521 28.2417 25.9147 28.242 27.6176H17.0677V27.6176Z" fill="white"/>
<path d="M15.5847 8.45402L18.9264 4.80832C19.5048 4.17721 19.7185 3.30662 19.4979 2.47945C19.2904 1.7015 18.7409 1.08808 17.9903 0.796639C17.2398 0.505193 16.4203 0.586932 15.7421 1.02105L15.5847 1.12178L15.4274 1.02105C14.7492 0.58699 13.9297 0.505252 13.1792 0.796639C12.4286 1.08814 11.8791 1.7015 11.6716 2.47951C11.451 3.30668 11.6647 4.17726 12.2431 4.80838L15.5847 8.45402ZM13.3701 2.9325C13.4314 2.70264 13.5937 2.5214 13.8155 2.43527C13.9031 2.40123 13.9938 2.38447 14.0839 2.38447C14.222 2.38447 14.3586 2.42396 14.4798 2.5016L15.5848 3.20889L16.6898 2.5016C16.8903 2.37334 17.1323 2.3492 17.3541 2.43533C17.5759 2.52146 17.7382 2.70264 17.7995 2.9325C17.8647 3.17689 17.8016 3.43418 17.6307 3.62062L15.5848 5.85258L13.5389 3.62062C13.368 3.43412 13.3049 3.17689 13.3701 2.9325Z" fill="white"/>
</g>
<defs>
<clipPath id="clip0">
<rect width="30" height="30" fill="white"/>
</clipPath>
</defs>
</svg>
