<svg width="8" height="10" viewBox="0 0 8 10" fill="none" xmlns="http://www.w3.org/2000/svg">
<path d="M1.42654 1.81923C0.974088 1.50252 0.864053 0.878987 1.18077 0.426538C1.49748 -0.0259117 2.12101 -0.135946 2.57346 0.180768L1.42654 1.81923ZM2.57346 8.81923L1.75423 9.39269L0.607306 7.75423L1.42654 7.18077L2.57346 8.81923ZM2.57346 0.180768L6.40313 2.86154L5.2562 4.5L1.42654 1.81923L2.57346 0.180768ZM6.40313 6.13846L2.57346 8.81923L1.42654 7.18077L5.25621 4.5L6.40313 6.13846ZM6.40313 2.86154C7.54056 3.65774 7.54057 5.34226 6.40313 6.13846L5.25621 4.5L5.2562 4.5L6.40313 2.86154Z" fill="white"/>
</svg>
