<svg width="24" height="24" viewBox="0 0 24 24" fill="none" xmlns="http://www.w3.org/2000/svg">
<g opacity="0.24">
<path fill-rule="evenodd" clip-rule="evenodd" d="M4 4C4 3.44772 4.44772 3 5 3H19C19.5523 3 20 3.44772 20 4C20 4.55228 19.5523 5 19 5H5C4.44772 5 4 4.55228 4 4Z" fill="white"/>
<path fill-rule="evenodd" clip-rule="evenodd" d="M5.92335 7.00294C6.47401 6.96059 6.95474 7.37264 6.9971 7.9233L7.78403 18.1534C7.86419 19.1954 8.73307 20 9.77814 20H14.222C15.267 20 16.1359 19.1954 16.2161 18.1534L17.003 7.9233C17.0454 7.37264 17.5261 6.96059 18.0767 7.00294C18.6274 7.0453 19.0395 7.52604 18.9971 8.0767L18.2102 18.3068C18.0499 20.3908 16.3121 22 14.222 22H9.77814C7.688 22 5.95023 20.3908 5.78992 18.3068L5.00299 8.0767C4.96064 7.52604 5.37269 7.0453 5.92335 7.00294Z" fill="white"/>
<path fill-rule="evenodd" clip-rule="evenodd" d="M12 4.15052C12.5784 4.69034 13.3463 5 14.1552 5L16 5V3L14.1552 3C13.7679 3 13.4061 2.80641 13.1913 2.4841C12.6246 1.63405 11.3754 1.63405 10.8087 2.4841C10.5939 2.80641 10.2321 3 9.84479 3L8 3V5L9.84479 5C10.6537 5 11.4216 4.69034 12 4.15052Z" fill="white"/>
</g>
</svg>
