<svg width="58" height="58" viewBox="0 0 58 58" fill="none" xmlns="http://www.w3.org/2000/svg">
<rect width="58" height="58" rx="6" fill="black" fill-opacity="0.2"/>
<g clip-path="url(#clip0)">
<path d="M29 32.7477C28.4822 32.7477 28.0626 32.328 28.0626 31.8103V25.2487C28.0626 24.731 28.4822 24.3113 29 24.3113C29.5177 24.3113 29.9373 24.731 29.9373 25.2487V31.8103C29.9373 32.328 29.5177 32.7477 29 32.7477Z" fill="white"/>
<path d="M43.6032 37.4539L31.9335 18.0046C30.6094 15.797 27.3933 15.7927 26.0667 18.0046L14.3969 37.4539C13.2934 39.2932 14.6211 41.6527 16.7743 41.6527H41.2257C43.3793 41.6527 44.7065 39.2929 43.6032 37.4539ZM41.2257 39.778H16.7744C16.0759 39.778 15.6477 39.0122 16.0046 38.4182L27.6743 18.9689C28.273 17.971 29.7264 17.9698 30.3259 18.9689L41.9956 38.4182C42.3521 39.0116 41.9248 39.778 41.2257 39.778Z" fill="white"/>
<path d="M29 36.4972C29.7765 36.4972 30.406 35.8677 30.406 35.0911C30.406 34.3146 29.7765 33.6851 29 33.6851C28.2234 33.6851 27.5939 34.3146 27.5939 35.0911C27.5939 35.8677 28.2234 36.4972 29 36.4972Z" fill="white"/>
</g>
<defs>
<clipPath id="clip0">
<rect width="30" height="30" fill="white" transform="translate(14 14)"/>
</clipPath>
</defs>
</svg>
