<svg width="20" height="20" viewBox="0 0 20 20" fill="none" xmlns="http://www.w3.org/2000/svg">
<path fill-rule="evenodd" clip-rule="evenodd" d="M4.41058 4.41075C4.73602 4.08531 5.26366 4.08531 5.58909 4.41075L15.5891 14.4108C15.9145 14.7362 15.9145 15.2638 15.5891 15.5893C15.2637 15.9147 14.736 15.9147 14.4106 15.5893L4.41058 5.58926C4.08514 5.26382 4.08514 4.73619 4.41058 4.41075Z" fill="white"/>
<path fill-rule="evenodd" clip-rule="evenodd" d="M15.5889 4.41075C15.2635 4.08531 14.7359 4.08531 14.4104 4.41075L4.41042 14.4108C4.08498 14.7362 4.08498 15.2638 4.41042 15.5893C4.73586 15.9147 5.26349 15.9147 5.58893 15.5893L15.5889 5.58926C15.9144 5.26382 15.9144 4.73619 15.5889 4.41075Z" fill="white"/>
</svg>
