<svg width="20" height="20" viewBox="0 0 20 20" fill="none" xmlns="http://www.w3.org/2000/svg">
<path fill-rule="evenodd" clip-rule="evenodd" d="M8.3335 10C8.3335 9.07954 9.07969 8.33334 10.0002 8.33334C10.9206 8.33334 11.6668 9.07954 11.6668 10C11.6668 10.9205 10.9206 11.6667 10.0002 11.6667C9.07969 11.6667 8.3335 10.9205 8.3335 10Z" fill="white"/>
<path fill-rule="evenodd" clip-rule="evenodd" d="M14.1665 10C14.1665 9.07954 14.9127 8.33334 15.8332 8.33334C16.7536 8.33334 17.4998 9.07954 17.4998 10C17.4998 10.9205 16.7536 11.6667 15.8332 11.6667C14.9127 11.6667 14.1665 10.9205 14.1665 10Z" fill="white"/>
<path fill-rule="evenodd" clip-rule="evenodd" d="M2.5 10C2.5 9.07954 3.24619 8.33334 4.16667 8.33334C5.08714 8.33334 5.83333 9.07954 5.83333 10C5.83333 10.9205 5.08714 11.6667 4.16667 11.6667C3.24619 11.6667 2.5 10.9205 2.5 10Z" fill="white"/>
</svg>
