<svg width="30" height="30" viewBox="0 0 30 30" fill="none" xmlns="http://www.w3.org/2000/svg">
<path fill-rule="evenodd" clip-rule="evenodd" d="M15 0C23.2788 0 30 6.72125 30 15C30 23.2788 23.2788 30 15 30C6.72125 30 0 23.2788 0 15C0 6.72125 6.72125 0 15 0ZM15 1.25C22.5888 1.25 28.75 7.41125 28.75 15C28.75 22.5888 22.5888 28.75 15 28.75C7.41125 28.75 1.25 22.5888 1.25 15C1.25 7.41125 7.41125 1.25 15 1.25ZM15.625 22.5H14.375V11.25H15.625V22.5ZM15 7.5C15.5825 7.5 16.0563 7.9725 16.0563 8.55625C16.0563 9.13875 15.5825 9.61125 15 9.61125C14.4175 9.61125 13.9437 9.13875 13.9437 8.55625C13.9437 7.9725 14.4175 7.5 15 7.5Z" fill="white"/>
</svg>
