<svg width="58" height="58" viewBox="0 0 58 58" fill="none" xmlns="http://www.w3.org/2000/svg">
<rect width="58" height="58" rx="6" fill="black" fill-opacity="0.2"/>
<path d="M29 14C20.7285 14 14 20.7285 14 29C14 37.2715 20.7285 44 29 44C37.2715 44 44 37.2703 44 29C44 20.7297 37.2715 14 29 14ZM29 41.6762C22.0112 41.6762 16.3238 35.9899 16.3238 29C16.3238 22.0101 22.0112 16.3238 29 16.3238C35.9899 16.3238 41.6762 22.0101 41.6762 29C41.6762 35.9899 35.9888 41.6762 29 41.6762Z" fill="white"/>
<path d="M35.8819 23.7831C35.409 23.3532 34.6735 23.3869 34.2413 23.8621L27.1538 31.6665L23.7297 28.1855C23.2777 27.7278 22.5434 27.7208 22.0868 28.1716C21.629 28.6213 21.622 29.3567 22.0728 29.8145L26.359 34.1716C26.5786 34.3947 26.876 34.519 27.1874 34.519C27.1944 34.519 27.2025 34.519 27.2095 34.5202C27.5302 34.5132 27.8323 34.3761 28.0472 34.1391L35.9608 25.4249C36.392 24.9485 36.3571 24.2142 35.8819 23.7831Z" fill="white"/>
</svg>
