<svg width="53" height="53" viewBox="0 0 53 53" fill="none" xmlns="http://www.w3.org/2000/svg">
<path d="M23.613 4.41427C25.1751 2.85218 27.7077 2.85217 29.2698 4.41427L48.1988 23.3432C49.7609 24.9053 49.7609 27.438 48.1988 29.0001L29.2698 47.929C27.7077 49.4911 25.1751 49.4911 23.613 47.929L4.68405 29.0001C3.12195 27.438 3.12195 24.9053 4.68405 23.3432L23.613 4.41427Z" stroke="#2C80EF" stroke-width="2"/>
<g clip-path="url(#clip0)">
<path d="M34.7779 25.8155L29.9782 20.4825C29.8758 20.3694 29.7328 20.3054 29.5814 20.3054H26.3816C26.1714 20.3054 25.9805 20.4291 25.8941 20.6211C25.8088 20.8142 25.844 21.0392 25.9848 21.195L30.4635 26.1718L25.9848 31.1475C25.844 31.3043 25.8077 31.5293 25.8941 31.7213C25.9805 31.9144 26.1714 32.0381 26.3816 32.0381H29.5814C29.7328 32.0381 29.8758 31.9731 29.9782 31.8621L34.7779 26.5291C34.9603 26.3264 34.9603 26.0171 34.7779 25.8155Z" fill="#2C80EF"/>
<path d="M27.8443 25.8155L23.0446 20.4825C22.9422 20.3694 22.7993 20.3054 22.6478 20.3054H19.448C19.2378 20.3054 19.0469 20.4291 18.9605 20.6211C18.8752 20.8142 18.9104 21.0392 19.0512 21.195L23.5299 26.1718L19.0512 31.1475C18.9104 31.3043 18.8741 31.5293 18.9605 31.7213C19.0469 31.9144 19.2378 32.0381 19.448 32.0381H22.6478C22.7993 32.0381 22.9422 31.9731 23.0446 31.8621L27.8443 26.5291C28.0267 26.3264 28.0267 26.0171 27.8443 25.8155Z" fill="#2C80EF"/>
</g>
<defs>
<clipPath id="clip0">
<rect width="16" height="16" fill="white" transform="translate(18.9141 18.1718)"/>
</clipPath>
</defs>
</svg>
