<svg width="53" height="53" viewBox="0 0 53 53" fill="none" xmlns="http://www.w3.org/2000/svg">
<path d="M23.613 4.91427C25.1751 3.35218 27.7077 3.35217 29.2698 4.91427L48.1988 23.8432C49.7609 25.4053 49.7609 27.938 48.1988 29.5001L29.2698 48.429C27.7077 49.9911 25.1751 49.9911 23.613 48.429L4.68405 29.5001C3.12195 27.938 3.12195 25.4053 4.68405 23.8432L23.613 4.91427Z" stroke="#2C80EF" stroke-width="2"/>
<g clip-path="url(#clip0)">
<path d="M22.5535 30.0121H30.3304V32.234H22.5535V30.0121ZM32.6666 20.4035L31.7817 24.0496C32.1247 24.7938 32.3182 25.6204 32.3197 26.4916L32.3314 33.2211C32.332 33.6037 32.1837 33.9638 31.9136 34.2348C31.6435 34.5059 31.2839 34.6556 30.9013 34.6562L21.9992 34.6716C21.999 34.6716 21.997 34.6716 21.9968 34.6716C21.2083 34.6716 20.5656 34.03 20.5641 33.2415L20.5525 26.512C20.551 25.6387 20.7391 24.7946 21.0963 24.0254L20.2172 20.4035C20.1714 20.215 20.2584 20.0193 20.4289 19.927L21.8994 19.1303C22.0159 19.0671 22.1552 19.0618 22.2764 19.1155C22.3975 19.1694 22.4869 19.2764 22.5182 19.4053L23.0695 21.6767C23.332 21.4927 23.6081 21.3322 23.8946 21.1945V20.8936C23.8945 19.6684 24.8912 18.6716 26.1164 18.6716H26.7674C27.9926 18.6716 28.9893 19.6684 28.9893 20.8936V21.2045C29.2769 21.344 29.5521 21.5054 29.8115 21.6879L30.3655 19.4053C30.3968 19.2764 30.4861 19.1694 30.6073 19.1155C30.7285 19.0617 30.8677 19.0671 30.9843 19.1303L32.4548 19.927C32.6254 20.0194 32.7123 20.215 32.6666 20.4035ZM24.7506 20.8637C25.2873 20.7036 25.85 20.6191 26.4259 20.6182H26.4364C27.0264 20.6182 27.5959 20.7069 28.1336 20.8698C28.1207 20.1269 27.5133 19.5263 26.7675 19.5263H26.1165C25.3725 19.5262 24.7666 20.1236 24.7506 20.8637ZM31.1849 29.5848C31.1849 29.3488 30.9936 29.1575 30.7576 29.1575H22.1262C21.8902 29.1575 21.6989 29.3488 21.6989 29.5848V32.6614C21.6989 32.8974 21.8902 33.0887 22.1262 33.0887H30.7576C30.9936 33.0887 31.1849 32.8974 31.1849 32.6614V29.5848ZM31.1849 26.708C31.1849 24.0926 29.0572 21.9649 26.4419 21.9649C23.8266 21.9649 21.6989 24.0926 21.6989 26.708C21.6989 26.9439 21.8902 27.1352 22.1261 27.1352C22.3621 27.1352 22.5534 26.9439 22.5534 26.708C22.5534 24.5639 24.2977 22.8196 26.4418 22.8196C28.5859 22.8196 30.3302 24.5639 30.3302 26.708C30.3302 26.9439 30.5215 27.1352 30.7575 27.1352C30.9935 27.1352 31.1849 26.9439 31.1849 26.708Z" fill="#2C80EF"/>
</g>
<defs>
<clipPath id="clip0">
<rect width="16" height="16" fill="white" transform="translate(18.4414 18.6716)"/>
</clipPath>
</defs>
</svg>
