<svg width="274" height="651" viewBox="0 0 274 651" fill="none" xmlns="http://www.w3.org/2000/svg">
<mask id="path-1-inside-1" fill="white">
<path d="M140.515 371.944C139.559 383.222 147.203 442.919 151.147 466.326C153.025 477.416 158.174 495.483 156.322 505.076C153.676 518.446 152.912 535.748 154.368 545.823C155.287 551.941 158.177 580.159 154.041 590.479C151.877 595.892 147.91 623.628 147.91 623.628C137.577 649.757 143.409 648.472 143.409 648.472C146.608 652.403 152.088 648.78 152.088 648.78C156.262 651.446 159.153 648.147 159.153 648.147C162.735 651.118 166.913 647.782 166.913 647.782C171.414 650.122 175.588 645.806 175.588 645.806C178.174 647.111 178.806 645.463 178.806 645.463C186.563 644.965 174.478 620.102 174.478 620.102C171.584 597.773 177.35 585.344 177.35 585.344C196.235 529.252 197.195 514.366 189.645 493.227C187.519 487.125 186.981 484.709 187.959 482.059C190.221 475.944 188.573 451.349 191.331 441.583C196.654 422.747 201.904 374.978 204.64 352.689C208.317 322.666 191.615 282.41 191.615 282.41C187.956 266.028 193.319 207.661 193.319 207.661C200.809 219.333 200.523 239.937 200.523 239.937C199.334 261.545 217.952 294.571 217.952 294.571C226.898 308.218 230.286 321.166 230.286 322.127C230.286 326.059 229.427 335.576 229.427 335.576L229.77 343.865C229.924 345.975 231.11 353.243 230.918 356.756C229.521 378.374 232.95 374.307 232.95 374.307C235.844 374.307 239.024 356.91 239.024 356.91C239.024 361.396 237.93 374.827 240.345 379.892C243.236 385.935 245.362 378.856 245.4 377.435C246.165 349.91 247.816 357.121 247.816 357.121C249.423 379.451 251.399 384.495 254.941 382.75C257.624 381.468 255.17 355.953 255.17 355.953C259.766 371.109 263.251 373.522 263.251 373.522C270.835 378.856 266.145 364.125 265.091 361.207C259.48 345.708 259.307 340.336 259.307 340.336C266.318 354.264 271.603 353.747 271.603 353.747C278.441 351.561 265.626 331.84 258.118 322.392C254.286 317.578 249.345 311.132 247.91 307.305C245.573 300.821 243.809 279.978 243.809 279.978C243.101 255.383 237.03 244.7 237.03 244.7C226.65 228.06 224.696 197.019 224.696 197.019L224.237 144.613C220.598 108.865 194.298 108.607 194.298 108.607C167.715 104.644 164.016 96.0432 164.016 96.0432C158.385 87.9278 161.603 72.3712 161.603 72.3712C166.274 68.5656 168.076 58.4623 168.076 58.4623C175.833 52.505 175.453 43.7879 171.87 43.8824C168.995 43.958 169.646 41.5731 169.646 41.5731C174.497 2.33201 139.713 0.328369 139.713 0.328369H134.403C134.403 0.328369 99.6043 2.33201 104.448 41.5637C104.448 41.5637 105.1 43.9517 102.199 43.8729C98.626 43.7784 98.2926 52.4955 106.021 58.4529C106.021 58.4529 107.82 68.553 112.495 72.3618C112.495 72.3618 115.713 87.9184 110.082 96.0337C110.082 96.0337 106.396 104.634 79.8 108.597C79.8 108.597 53.4561 108.856 49.8733 144.603L49.3763 197.01C49.3763 197.01 47.4607 228.05 37.0395 244.691C37.0395 244.691 30.9969 255.377 30.2986 279.969C30.2986 279.969 28.5276 300.812 26.1999 307.295C24.7813 311.104 19.8428 317.55 15.9801 322.382C8.40563 331.811 -4.3244 351.492 2.4857 353.738C2.4857 353.738 7.79852 354.255 14.7816 340.327C14.7816 340.327 14.6369 345.66 9.03472 361.198C7.93378 364.077 3.25008 378.809 10.8371 373.513C10.8371 373.513 14.3507 371.097 18.918 355.943C18.918 355.943 16.4676 381.458 19.1948 382.74C22.7587 384.489 24.7027 379.442 26.31 357.112C26.31 357.112 27.9583 349.901 28.7227 377.426C28.7604 378.846 30.8396 385.925 33.743 379.883C36.1933 374.817 35.0924 361.409 35.0924 356.901C35.0924 356.901 38.2348 374.297 41.1727 374.297C41.1727 374.297 44.6297 378.364 43.211 356.747C42.9814 353.215 44.2176 345.966 44.3717 343.855L44.7052 335.567C44.7052 335.567 43.8433 326.071 43.8433 322.118C43.8433 321.138 47.2342 308.209 56.177 294.561C56.177 294.561 74.7766 261.52 73.5781 239.927C73.5781 239.927 73.3202 219.324 80.8097 207.652C80.8097 207.652 86.1257 266.016 82.524 282.401C82.524 282.401 65.7929 322.656 69.4826 352.679C72.2003 375.028 77.4408 422.734 82.7757 441.574C85.5626 451.321 83.9144 475.91 86.1477 482.05C87.1543 484.718 86.6258 487.175 84.4617 493.218C76.9533 514.357 77.9095 529.246 96.7953 585.335C96.7953 585.335 102.608 597.763 99.6704 620.093C99.6704 620.093 87.6041 644.956 95.3327 645.454C95.3327 645.454 95.9366 647.101 98.5506 645.797C98.5506 645.797 102.725 650.113 107.235 647.772C107.235 647.772 111.413 651.112 114.983 648.138C114.983 648.138 117.845 651.436 122.019 648.771C122.019 648.771 127.499 652.473 130.755 648.462C130.755 648.462 136.539 649.748 126.241 623.618C126.241 623.618 122.296 595.917 120.123 590.47C115.977 580.153 118.905 551.875 119.789 545.813C121.214 535.682 120.45 518.421 117.845 505.066C115.939 495.496 121.101 477.425 123.007 466.317C126.923 442.931 134.598 383.232 133.639 371.935L136.81 373.05C139.081 373.056 140.515 371.944 140.515 371.944Z"/>
</mask>
<path d="M140.515 371.944C139.559 383.222 147.203 442.919 151.147 466.326C153.025 477.416 158.174 495.483 156.322 505.076C153.676 518.446 152.912 535.748 154.368 545.823C155.287 551.941 158.177 580.159 154.041 590.479C151.877 595.892 147.91 623.628 147.91 623.628C137.577 649.757 143.409 648.472 143.409 648.472C146.608 652.403 152.088 648.78 152.088 648.78C156.262 651.446 159.153 648.147 159.153 648.147C162.735 651.118 166.913 647.782 166.913 647.782C171.414 650.122 175.588 645.806 175.588 645.806C178.174 647.111 178.806 645.463 178.806 645.463C186.563 644.965 174.478 620.102 174.478 620.102C171.584 597.773 177.35 585.344 177.35 585.344C196.235 529.252 197.195 514.366 189.645 493.227C187.519 487.125 186.981 484.709 187.959 482.059C190.221 475.944 188.573 451.349 191.331 441.583C196.654 422.747 201.904 374.978 204.64 352.689C208.317 322.666 191.615 282.41 191.615 282.41C187.956 266.028 193.319 207.661 193.319 207.661C200.809 219.333 200.523 239.937 200.523 239.937C199.334 261.545 217.952 294.571 217.952 294.571C226.898 308.218 230.286 321.166 230.286 322.127C230.286 326.059 229.427 335.576 229.427 335.576L229.77 343.865C229.924 345.975 231.11 353.243 230.918 356.756C229.521 378.374 232.95 374.307 232.95 374.307C235.844 374.307 239.024 356.91 239.024 356.91C239.024 361.396 237.93 374.827 240.345 379.892C243.236 385.935 245.362 378.856 245.4 377.435C246.165 349.91 247.816 357.121 247.816 357.121C249.423 379.451 251.399 384.495 254.941 382.75C257.624 381.468 255.17 355.953 255.17 355.953C259.766 371.109 263.251 373.522 263.251 373.522C270.835 378.856 266.145 364.125 265.091 361.207C259.48 345.708 259.307 340.336 259.307 340.336C266.318 354.264 271.603 353.747 271.603 353.747C278.441 351.561 265.626 331.84 258.118 322.392C254.286 317.578 249.345 311.132 247.91 307.305C245.573 300.821 243.809 279.978 243.809 279.978C243.101 255.383 237.03 244.7 237.03 244.7C226.65 228.06 224.696 197.019 224.696 197.019L224.237 144.613C220.598 108.865 194.298 108.607 194.298 108.607C167.715 104.644 164.016 96.0432 164.016 96.0432C158.385 87.9278 161.603 72.3712 161.603 72.3712C166.274 68.5656 168.076 58.4623 168.076 58.4623C175.833 52.505 175.453 43.7879 171.87 43.8824C168.995 43.958 169.646 41.5731 169.646 41.5731C174.497 2.33201 139.713 0.328369 139.713 0.328369H134.403C134.403 0.328369 99.6043 2.33201 104.448 41.5637C104.448 41.5637 105.1 43.9517 102.199 43.8729C98.626 43.7784 98.2926 52.4955 106.021 58.4529C106.021 58.4529 107.82 68.553 112.495 72.3618C112.495 72.3618 115.713 87.9184 110.082 96.0337C110.082 96.0337 106.396 104.634 79.8 108.597C79.8 108.597 53.4561 108.856 49.8733 144.603L49.3763 197.01C49.3763 197.01 47.4607 228.05 37.0395 244.691C37.0395 244.691 30.9969 255.377 30.2986 279.969C30.2986 279.969 28.5276 300.812 26.1999 307.295C24.7813 311.104 19.8428 317.55 15.9801 322.382C8.40563 331.811 -4.3244 351.492 2.4857 353.738C2.4857 353.738 7.79852 354.255 14.7816 340.327C14.7816 340.327 14.6369 345.66 9.03472 361.198C7.93378 364.077 3.25008 378.809 10.8371 373.513C10.8371 373.513 14.3507 371.097 18.918 355.943C18.918 355.943 16.4676 381.458 19.1948 382.74C22.7587 384.489 24.7027 379.442 26.31 357.112C26.31 357.112 27.9583 349.901 28.7227 377.426C28.7604 378.846 30.8396 385.925 33.743 379.883C36.1933 374.817 35.0924 361.409 35.0924 356.901C35.0924 356.901 38.2348 374.297 41.1727 374.297C41.1727 374.297 44.6297 378.364 43.211 356.747C42.9814 353.215 44.2176 345.966 44.3717 343.855L44.7052 335.567C44.7052 335.567 43.8433 326.071 43.8433 322.118C43.8433 321.138 47.2342 308.209 56.177 294.561C56.177 294.561 74.7766 261.52 73.5781 239.927C73.5781 239.927 73.3202 219.324 80.8097 207.652C80.8097 207.652 86.1257 266.016 82.524 282.401C82.524 282.401 65.7929 322.656 69.4826 352.679C72.2003 375.028 77.4408 422.734 82.7757 441.574C85.5626 451.321 83.9144 475.91 86.1477 482.05C87.1543 484.718 86.6258 487.175 84.4617 493.218C76.9533 514.357 77.9095 529.246 96.7953 585.335C96.7953 585.335 102.608 597.763 99.6704 620.093C99.6704 620.093 87.6041 644.956 95.3327 645.454C95.3327 645.454 95.9366 647.101 98.5506 645.797C98.5506 645.797 102.725 650.113 107.235 647.772C107.235 647.772 111.413 651.112 114.983 648.138C114.983 648.138 117.845 651.436 122.019 648.771C122.019 648.771 127.499 652.473 130.755 648.462C130.755 648.462 136.539 649.748 126.241 623.618C126.241 623.618 122.296 595.917 120.123 590.47C115.977 580.153 118.905 551.875 119.789 545.813C121.214 535.682 120.45 518.421 117.845 505.066C115.939 495.496 121.101 477.425 123.007 466.317C126.923 442.931 134.598 383.232 133.639 371.935L136.81 373.05C139.081 373.056 140.515 371.944 140.515 371.944Z" stroke="white" stroke-opacity="0.25" stroke-width="2" mask="url(#path-1-inside-1)"/>
</svg>
