<svg width="53" height="53" viewBox="0 0 53 53" fill="none" xmlns="http://www.w3.org/2000/svg">
<path d="M23.7165 4.97133C25.2786 3.40923 27.8113 3.40923 29.3733 4.97132L48.3023 23.9003C49.8644 25.4624 49.8644 27.995 48.3023 29.5571L29.3734 48.486C27.8113 50.0481 25.2786 50.0481 23.7165 48.486L4.78756 29.5571C3.22547 27.995 3.22547 25.4624 4.78756 23.9003L23.7165 4.97133Z" stroke="#2C80EF" stroke-width="2"/>
<g clip-path="url(#clip0)">
<path d="M26.4319 25.4359C27.4907 25.4359 28.4076 25.0561 29.1567 24.3069C29.9059 23.5577 30.2856 22.6411 30.2856 21.5821C30.2856 20.5235 29.9059 19.6068 29.1566 18.8574C28.4073 18.1084 27.4906 17.7286 26.4319 17.7286C25.3729 17.7286 24.4563 18.1084 23.7072 18.8575C22.958 19.6067 22.5781 20.5234 22.5781 21.5821C22.5781 22.6411 22.958 23.5578 23.7073 24.307C24.4565 25.056 25.3733 25.4359 26.4319 25.4359Z" fill="#2C80EF"/>
<path d="M33.174 30.0318C33.1523 29.7201 33.1086 29.38 33.0443 29.0209C32.9794 28.659 32.8958 28.317 32.7957 28.0044C32.6923 27.6813 32.5516 27.3622 32.3778 27.0564C32.1974 26.739 31.9855 26.4626 31.7477 26.2352C31.499 25.9973 31.1946 25.806 30.8425 25.6665C30.4917 25.5277 30.1029 25.4574 29.687 25.4574C29.5237 25.4574 29.3657 25.5244 29.0607 25.723C28.8729 25.8454 28.6533 25.987 28.4082 26.1437C28.1986 26.2772 27.9147 26.4023 27.564 26.5156C27.2218 26.6263 26.8744 26.6825 26.5315 26.6825C26.1886 26.6825 25.8413 26.6263 25.4988 26.5156C25.1484 26.4025 24.8645 26.2773 24.6552 26.1438C24.4124 25.9886 24.1926 25.847 24.0021 25.7229C23.6974 25.5243 23.5393 25.4573 23.376 25.4573C22.96 25.4573 22.5713 25.5277 22.2206 25.6666C21.8688 25.8059 21.5642 25.9972 21.3153 26.2353C21.0776 26.4629 20.8656 26.7391 20.6854 27.0564C20.5117 27.3622 20.3711 27.6811 20.2676 28.0045C20.1676 28.3171 20.084 28.659 20.019 29.0209C19.9547 29.3795 19.911 29.7197 19.8894 30.0322C19.8682 30.3384 19.8574 30.6561 19.8574 30.977C19.8574 31.8122 20.1229 32.4884 20.6465 32.987C21.1636 33.4791 21.8478 33.7287 22.6798 33.7287H30.3839C31.2159 33.7287 31.8999 33.4792 32.4171 32.987C32.9408 32.4888 33.2063 31.8125 33.2063 30.9769C33.2062 30.6545 33.1953 30.3365 33.174 30.0318Z" fill="#2C80EF"/>
</g>
<defs>
<clipPath id="clip0">
<rect width="16" height="16.0001" fill="white" transform="translate(18.5449 17.7286)"/>
</clipPath>
</defs>
</svg>
