<svg width="169" height="169" viewBox="0 0 169 169" fill="none" xmlns="http://www.w3.org/2000/svg">
<rect y="84.5" width="119.501" height="119.501" rx="24" transform="rotate(-45 0 84.5)" fill="black" fill-opacity="0.13"/>
<path d="M84.0794 83.891C92.1057 83.8905 94.9936 75.8541 95.7496 69.2527C96.6809 61.1205 92.8353 55 84.0794 55C75.3247 55 71.4771 61.12 72.4091 69.2527C73.1659 75.8541 76.0529 83.8916 84.0794 83.891Z" fill="white"/>
<path d="M101.63 87.2362C101.888 87.2362 102.144 87.2439 102.399 87.2581C102.017 86.7132 101.575 86.2326 101.058 85.8463C99.5155 84.6952 97.5181 84.3176 95.7523 83.6237C94.8928 83.2861 94.1231 82.9507 93.4005 82.5688C90.9618 85.2433 87.7817 86.6423 84.0783 86.6426C80.3762 86.6426 77.1963 85.2436 74.7579 82.5688C74.0353 82.9508 73.2655 83.2861 72.4061 83.6237C70.6403 84.3177 68.643 84.6952 67.1006 85.8463C64.4334 87.8371 63.744 92.3156 63.2025 95.3705C62.7555 97.8923 62.4552 100.466 62.3676 103.027C62.2997 105.011 63.2793 105.29 64.9392 105.889C67.0175 106.638 69.1635 107.195 71.3239 107.651C75.4962 108.532 79.7969 109.209 84.0791 109.239C86.154 109.224 88.2331 109.057 90.2999 108.789C88.7696 106.572 87.872 103.886 87.872 100.994C87.8721 93.4078 94.0436 87.2362 101.63 87.2362Z" fill="white"/>
<path d="M101.63 89.9878C95.5513 89.9878 90.6235 94.9156 90.6235 100.994C90.6235 107.072 95.5512 112 101.63 112C107.708 112 112.636 107.072 112.636 100.994C112.636 94.9155 107.708 89.9878 101.63 89.9878ZM106.445 102.882H103.518V105.809C103.518 106.852 102.673 107.697 101.63 107.697C100.587 107.697 99.7413 106.852 99.7413 105.809V102.882H96.8146C95.7716 102.882 94.9261 102.037 94.9261 100.994C94.9261 99.9507 95.7715 99.1052 96.8146 99.1052H99.7413V96.1785C99.7413 95.1356 100.587 94.2901 101.63 94.2901C102.673 94.2901 103.518 95.1356 103.518 96.1785V99.1052H106.445C107.488 99.1052 108.333 99.9507 108.333 100.994C108.333 102.037 107.488 102.882 106.445 102.882Z" fill="white"/>
</svg>
