<svg width="256" height="282" viewBox="0 0 256 282" fill="none" xmlns="http://www.w3.org/2000/svg">
<g opacity="0.1" clip-path="url(#clip0)">
<path d="M347.217 269.795C348.234 269.385 348.699 268.206 348.229 267.214C348.021 266.774 347.777 266.258 347.501 265.675C347.24 265.128 346.952 264.521 346.639 263.861C346.234 263.035 345.796 262.143 345.327 261.189C344.855 260.239 344.353 259.228 343.823 258.163C343.555 257.609 343.291 257.152 343.015 256.632C342.74 256.123 342.458 255.603 342.17 255.072C341.592 254.012 341 252.904 340.366 251.769C339.71 250.646 339.032 249.485 338.336 248.291C337.987 247.696 337.632 247.092 337.274 246.482C336.899 245.881 336.519 245.272 336.135 244.657C335.364 243.432 334.576 242.18 333.774 240.908C332.083 238.416 330.4 235.81 328.522 233.274C328.06 232.635 327.596 231.994 327.132 231.351L326.432 230.388L325.705 229.44C324.731 228.18 323.754 226.915 322.776 225.65C321.782 224.399 320.752 223.175 319.744 221.946C319.234 221.336 318.74 220.716 318.219 220.12C317.697 219.525 317.177 218.932 316.659 218.342C316.14 217.753 315.623 217.166 315.109 216.582C314.598 215.996 314.083 215.42 313.551 214.863C312.499 213.743 311.46 212.636 310.437 211.547C309.414 210.461 308.354 209.441 307.345 208.421C306.329 207.407 305.342 206.41 304.333 205.485C303.336 204.552 302.366 203.644 301.428 202.766C300.494 201.885 299.54 201.085 298.651 200.294C297.756 199.51 296.897 198.759 296.08 198.046C295.243 197.355 294.448 196.701 293.701 196.086C292.954 195.473 292.256 194.9 291.609 194.37C290.962 193.842 290.343 193.384 289.797 192.957C289.002 192.347 288.33 191.832 287.797 191.422C286.983 190.798 285.824 190.931 285.171 191.722L251.869 232.032C251.241 232.793 251.295 233.904 251.995 234.598C252.274 234.873 252.595 235.191 252.957 235.549C253.303 235.897 253.7 236.266 254.107 236.696C254.514 237.126 254.954 237.591 255.424 238.088C255.895 238.583 256.396 239.109 256.923 239.664C257.432 240.236 257.967 240.839 258.525 241.468C259.077 242.102 259.679 242.732 260.252 243.434C260.831 244.129 261.428 244.848 262.043 245.587C262.67 246.313 263.267 247.1 263.886 247.896C264.498 248.697 265.153 249.487 265.768 250.334C266.383 251.179 267.009 252.037 267.642 252.907C267.965 253.334 268.271 253.78 268.573 254.233C268.878 254.683 269.185 255.134 269.493 255.588C269.801 256.039 270.111 256.492 270.421 256.947C270.731 257.402 271.015 257.878 271.315 258.344C271.903 259.283 272.512 260.209 273.09 261.155C273.653 262.11 274.217 263.066 274.778 264.018L275.199 264.728L275.593 265.453C275.857 265.934 276.119 266.415 276.381 266.893C277.46 268.781 278.372 270.729 279.326 272.558C279.762 273.496 280.191 274.418 280.612 275.321C280.822 275.771 281.03 276.216 281.235 276.655C281.426 277.103 281.613 277.544 281.799 277.98C282.172 278.848 282.534 279.693 282.885 280.51C283.209 281.337 283.522 282.137 283.823 282.904C283.973 283.287 284.12 283.663 284.264 284.029C284.4 284.387 284.568 284.774 284.659 285.072C284.873 285.697 285.076 286.291 285.267 286.849C285.461 287.403 285.644 287.921 285.813 288.4C286.034 289.061 286.237 289.667 286.421 290.215C286.625 290.827 286.805 291.368 286.96 291.831C287.306 292.872 288.458 293.402 289.476 292.993L347.217 269.795Z" fill="white"/>
<path d="M177.631 197.793C178.135 197.862 178.693 197.938 179.301 198.021C179.905 198.126 180.559 198.24 181.257 198.362C181.954 198.482 182.696 198.609 183.477 198.743C184.156 198.856 184.86 199.02 185.591 199.173L206.608 156.183C205.566 156.02 204.533 155.859 203.52 155.701C202.827 155.598 202.144 155.479 201.463 155.394C200.783 155.312 200.111 155.23 199.448 155.15C198.123 154.993 196.834 154.839 195.589 154.691C194.339 154.584 193.132 154.481 191.973 154.382C190.815 154.293 189.709 154.176 188.651 154.125C187.595 154.074 186.593 154.024 185.651 153.978C184.711 153.933 183.831 153.892 183.018 153.853C182.204 153.84 181.456 153.828 180.78 153.818C179.83 153.806 179.023 153.796 178.376 153.789C177.351 153.776 176.502 154.578 176.453 155.602L174.536 195.616C174.489 196.602 175.2 197.46 176.178 197.594C176.595 197.651 177.08 197.718 177.631 197.793Z" fill="white"/>
<path d="M234.117 219.826C234.682 220.237 235.217 220.626 235.72 220.993C236.224 221.353 236.696 221.691 237.132 222.004C237.321 222.133 237.633 222.37 237.887 222.559C238.15 222.755 238.399 222.942 238.636 223.119C239.154 223.504 239.61 223.845 240.001 224.137C240.88 224.793 242.128 224.571 242.73 223.654L270.17 181.856C270.773 180.939 270.481 179.706 269.529 179.16C269.105 178.917 268.611 178.634 268.052 178.313C267.795 178.165 267.525 178.01 267.24 177.847C266.931 177.672 266.607 177.489 266.27 177.298C265.489 176.868 264.645 176.403 263.743 175.906C262.84 175.414 261.88 174.891 260.868 174.339C259.903 173.856 258.889 173.348 257.831 172.817C256.769 172.299 255.685 171.722 254.522 171.199C253.365 170.669 252.169 170.12 250.94 169.557C249.719 168.98 248.43 168.457 247.122 167.908C245.809 167.37 244.487 166.782 243.107 166.263C242.757 166.131 242.402 165.996 242.05 165.863L230.212 217.242C230.867 217.653 231.483 218.089 232.091 218.482C232.797 218.951 233.474 219.399 234.117 219.826Z" fill="white"/>
<path d="M140.786 197.584C141.316 197.514 141.837 197.427 142.356 197.373C142.876 197.32 143.389 197.268 143.895 197.216C144.906 197.111 145.888 197.01 146.839 196.911C147.792 196.847 148.714 196.785 149.598 196.726C150.039 196.695 150.471 196.666 150.893 196.637C151.314 196.609 151.736 196.573 152.098 196.573C152.843 196.553 153.55 196.535 154.214 196.517C154.876 196.496 155.495 196.477 156.069 196.459C156.775 196.454 157.424 196.45 158.01 196.446C158.655 196.442 159.225 196.439 159.713 196.437C160.81 196.431 161.672 195.502 161.6 194.407L159.13 156.714C159.058 155.619 158.082 154.811 156.994 154.948C156.51 155.009 155.945 155.081 155.304 155.162C154.711 155.237 154.054 155.321 153.339 155.412C152.493 155.537 151.579 155.673 150.602 155.818C149.628 155.966 148.591 156.124 147.499 156.29C146.939 156.369 146.424 156.474 145.884 156.576C145.345 156.679 144.794 156.784 144.231 156.891C143.107 157.109 141.937 157.335 140.725 157.569C139.522 157.843 138.278 158.127 137 158.417C136.362 158.564 135.715 158.713 135.061 158.863C134.407 159.016 133.752 159.203 133.087 159.375C131.76 159.729 130.405 160.09 129.027 160.457C127.662 160.868 126.275 161.286 124.871 161.71C124.171 161.926 123.464 162.131 122.761 162.362C122.061 162.601 121.355 162.841 120.649 163.083C119.943 163.324 119.234 163.567 118.524 163.811C117.813 164.053 117.101 164.296 116.399 164.573C114.991 165.11 113.577 165.65 112.164 166.189C110.756 166.74 109.372 167.351 107.985 167.928C107.293 168.223 106.6 168.507 105.916 168.81C105.238 169.123 104.561 169.435 103.887 169.746C103.215 170.058 102.544 170.368 101.878 170.677C101.211 170.985 100.548 171.289 99.9027 171.624C98.6077 172.278 97.3286 172.924 96.0708 173.559C94.8126 174.189 93.6134 174.886 92.4224 175.527C91.2368 176.179 90.0709 176.802 88.9711 177.473C87.8651 178.129 86.7892 178.768 85.7485 179.385C84.7046 179.994 83.7365 180.651 82.7877 181.246C81.8455 181.849 80.9427 182.428 80.0839 182.979C79.2437 183.556 78.4463 184.103 77.6973 184.617C76.9501 185.131 76.2509 185.613 75.6042 186.058C74.9583 186.504 74.3869 186.945 73.8604 187.327C73.1469 187.854 72.5376 188.304 72.0447 188.667C71.2215 189.275 71.0283 190.423 71.6039 191.269L87.2555 214.28C87.8125 215.099 88.9016 215.356 89.7642 214.869C90.1617 214.645 90.6315 214.38 91.1673 214.078C91.6344 213.819 92.1396 213.514 92.7102 213.217C93.2804 212.919 93.897 212.599 94.5557 212.256C95.2124 211.912 95.9116 211.547 96.6483 211.162C97.3978 210.802 98.1855 210.425 99.0076 210.031C99.8335 209.646 100.671 209.205 101.575 208.821C102.472 208.427 103.399 208.02 104.352 207.602C105.296 207.167 106.296 206.788 107.307 206.382C108.324 205.988 109.342 205.542 110.409 205.165C111.471 204.783 112.551 204.394 113.644 203.999C114.186 203.794 114.744 203.619 115.303 203.441C115.861 203.261 116.421 203.081 116.984 202.9C117.546 202.718 118.11 202.536 118.676 202.353C119.244 202.18 119.821 202.025 120.394 201.86C121.545 201.542 122.688 201.189 123.847 200.893C125.007 200.606 126.166 200.319 127.321 200.033C127.895 199.881 128.476 199.761 129.056 199.642C129.633 199.52 130.21 199.399 130.784 199.278C131.357 199.156 131.927 199.035 132.495 198.915C133.064 198.801 133.636 198.714 134.201 198.612C135.33 198.416 136.445 198.222 137.542 198.032C138.643 197.88 139.726 197.73 140.786 197.584Z" fill="white"/>
<path d="M34.0633 227.336C33.653 227.916 33.2412 228.499 32.8275 229.084C32.4149 229.669 32.0007 230.256 31.5851 230.845C31.1713 231.435 30.7842 232.047 30.3817 232.649C29.5882 233.861 28.7762 235.063 27.9989 236.289C27.2398 237.525 26.4807 238.76 25.7247 239.992L25.1607 240.913L24.6252 241.85C24.2694 242.473 23.9148 243.094 23.5613 243.713C22.1165 246.167 20.8614 248.676 19.5857 251.059C18.992 252.274 18.4079 253.469 17.8361 254.638C17.5526 255.222 17.2717 255.801 16.9947 256.372C16.734 256.951 16.4767 257.523 16.2225 258.088C15.7164 259.215 15.2242 260.312 14.7479 261.373C14.3037 262.447 13.8741 263.485 13.4619 264.481C13.0578 265.48 12.6495 266.425 12.3014 267.343C11.958 268.261 11.6319 269.133 11.3252 269.951C11.02 270.769 10.7345 271.534 10.4706 272.242C10.2269 272.957 10.0032 273.613 9.80077 274.206C9.53808 274.986 9.31247 275.655 9.1282 276.202C8.80176 277.171 9.29818 278.221 10.2524 278.587L24.8203 284.172C25.7475 284.527 26.7917 284.112 27.2201 283.216C27.4326 282.773 27.6864 282.242 27.9781 281.632C28.2199 281.129 28.4872 280.572 28.7789 279.966C29.0887 279.369 29.4236 278.724 29.7818 278.033C30.1387 277.345 30.5181 276.612 30.9183 275.839C31.3216 275.069 31.786 274.279 32.2468 273.444C32.7135 272.614 33.1999 271.749 33.7032 270.854C34.2336 269.976 34.7818 269.067 35.3458 268.133C35.6267 267.667 35.9114 267.194 36.1996 266.716C36.5029 266.247 36.81 265.772 37.1202 265.291C37.7406 264.333 38.3746 263.355 39.0193 262.359C40.3892 260.42 41.7289 258.377 43.2429 256.408C43.6126 255.91 43.9839 255.41 44.3563 254.909L44.9145 254.157L45.4994 253.421C46.2782 252.441 47.0601 251.457 47.842 250.473C48.6382 249.501 49.4645 248.554 50.2677 247.599C50.6748 247.125 51.0658 246.641 51.4826 246.18C51.8998 245.72 52.3155 245.261 52.7296 244.804C53.143 244.348 53.5544 243.893 53.9639 243.44C54.3695 242.985 54.779 242.538 55.2044 242.11C56.0411 241.243 56.8678 240.387 57.681 239.545C58.4927 238.704 59.3399 237.923 60.1395 237.134C60.9454 236.351 61.725 235.579 62.5277 234.871C63.3174 234.152 64.0854 233.453 64.8286 232.777C65.5657 232.096 66.3252 231.489 67.0268 230.88C67.733 230.278 68.4098 229.702 69.0534 229.154C69.6854 228.653 70.285 228.179 70.8482 227.732C71.4084 227.286 71.9326 226.869 72.4174 226.483C72.6399 226.299 72.9412 226.078 73.1958 225.885C73.457 225.688 73.7062 225.5 73.9426 225.322C74.4575 224.933 74.9122 224.59 75.3016 224.296C76.1774 223.635 76.313 222.375 75.6006 221.54L59.0142 202.109C58.3018 201.275 57.0359 201.211 56.2459 201.972C55.8947 202.31 55.4841 202.706 55.0197 203.153C54.8065 203.359 54.5816 203.575 54.346 203.802C54.1061 204.035 53.8778 204.247 53.5803 204.551C53.0116 205.125 52.397 205.746 51.7399 206.408C51.0863 207.072 50.3905 207.778 49.6569 208.522C48.975 209.26 48.258 210.037 47.5101 210.847C46.7715 211.663 45.9749 212.486 45.2042 213.387C44.4304 214.284 43.6308 215.212 42.8083 216.165C41.9758 217.107 41.1703 218.118 40.3417 219.145C39.5192 220.177 38.6523 221.206 37.8252 222.297C37.0004 223.388 36.1621 224.497 35.3138 225.621C34.8827 226.177 34.4705 226.752 34.0633 227.336Z" fill="white"/>
<path d="M149.626 362.179C153.814 364.226 158.25 365.196 162.617 365.196C173.58 365.196 184.116 359.088 189.255 348.576C190.245 346.552 191.011 344.318 191.509 342.214L221.478 212.136L232.892 162.597L239.962 131.91C240.785 128.338 237.944 125.905 235.094 125.905C233.425 125.905 231.753 126.739 230.811 128.666L216.423 158.097L195.197 201.513L136.023 322.55C128.836 337.25 134.927 354.993 149.626 362.179ZM163.716 320.289C171.736 320.289 178.237 326.79 178.237 334.81C178.237 342.829 171.736 349.331 163.716 349.331C155.697 349.331 149.195 342.829 149.195 334.81C149.195 326.789 155.697 320.289 163.716 320.289Z" fill="white"/>
</g>
<defs>
<clipPath id="clip0">
<rect width="367" height="367" fill="white"/>
</clipPath>
</defs>
</svg>
