<svg width="16" height="16" viewBox="0 0 16 16" fill="none" xmlns="http://www.w3.org/2000/svg">
<g clip-path="url(#clip0)">
<path d="M12.1127 8.92999V6.54572L14.389 8.82209C14.5032 8.93631 14.6528 8.99337 14.8025 8.99337C14.9521 8.99337 15.1018 8.93631 15.216 8.82209C15.4444 8.59375 15.4444 8.22351 15.216 7.99524L12.1127 4.89187V4.53957V1.74242C12.1127 0.781633 11.2733 0 10.2417 0H5.75816C4.72651 0 3.88711 0.781633 3.88711 1.74242V4.53957V4.89187L0.783809 7.99524C0.555462 8.22359 0.555462 8.59383 0.783809 8.82209C0.898021 8.93623 1.04771 8.99337 1.19731 8.99337C1.34692 8.99337 1.4966 8.93631 1.61081 8.82209L3.88711 6.54572V8.93007L0.783809 12.0335C0.555462 12.2619 0.555462 12.6321 0.783887 12.8605C0.898021 12.9747 1.04771 13.0317 1.19731 13.0317C1.34692 13.0317 1.4966 12.9747 1.61081 12.8605L3.88711 10.584V12.5315V14.2577C3.88711 15.2185 4.72651 16.0002 5.75816 16.0002H10.2417C11.2733 16.0002 12.1127 15.2185 12.1127 14.2577V12.5314V10.5839L14.389 12.8604C14.5032 12.9746 14.6528 13.0317 14.8025 13.0317C14.9521 13.0317 15.1018 12.9746 15.2159 12.8604C15.4444 12.632 15.4444 12.2619 15.216 12.0334L12.1127 8.92999ZM10.9433 9.17245V11.9467H5.05651V9.17245C5.05651 9.17229 5.05651 9.17222 5.05651 9.17206V5.13448C5.05651 5.13425 5.05651 5.13394 5.05651 5.1337V5.12427H10.9433V5.1337C10.9433 5.13394 10.9433 5.13425 10.9433 5.13448V9.17206C10.9433 9.17214 10.9433 9.17229 10.9433 9.17245ZM5.75816 1.16941H10.2417C10.622 1.16941 10.9433 1.43182 10.9433 1.74242V3.95486H5.05651V1.74242C5.05651 1.43182 5.37779 1.16941 5.75816 1.16941ZM10.2417 14.8306H5.75816C5.37779 14.8306 5.05651 14.5682 5.05651 14.2576V13.1161H10.9433V14.2577C10.9433 14.5683 10.622 14.8306 10.2417 14.8306Z" fill="white"/>
</g>
<defs>
<clipPath id="clip0">
<rect width="16" height="16" fill="white"/>
</clipPath>
</defs>
</svg>
