<svg width="12" height="12" viewBox="0 0 12 12" fill="none" xmlns="http://www.w3.org/2000/svg">
<path d="M11.0132 2.82L11.0232 2.81L8.53988 0.333344L7.83322 1.04L9.23988 2.44666C8.61322 2.68666 8.16653 3.29 8.16653 4C8.16653 4.92 8.91319 5.66666 9.83319 5.66666C10.0698 5.66666 10.2965 5.61666 10.4998 5.52666V10.3333C10.4999 10.7 10.1999 11 9.83322 11C9.46657 11 9.16657 10.7 9.16657 10.3333V7.33334C9.16657 6.59669 8.56991 6 7.83322 6H7.16657V1.33334C7.16653 0.596656 6.56988 0 5.83322 0H1.83322C1.09653 0 0.499878 0.596656 0.499878 1.33334V12H7.16653V7H8.16653V10.3333C8.16653 11.2533 8.91319 12 9.83319 12C10.7532 12 11.4998 11.2533 11.4998 10.3333V4C11.4999 3.54 11.3132 3.12334 11.0132 2.82ZM5.83322 4.66666H1.83322V1.33334H5.83322V4.66666ZM9.83322 4.66666C9.46657 4.66666 9.16657 4.36666 9.16657 4C9.16657 3.63334 9.46657 3.33334 9.83322 3.33334C10.1999 3.33334 10.4999 3.63334 10.4999 4C10.4999 4.36666 10.1999 4.66666 9.83322 4.66666Z" fill="white"/>
</svg>
