<svg width="20" height="20" viewBox="0 0 20 20" fill="none" xmlns="http://www.w3.org/2000/svg">
<path d="M12.8125 13.0038H20V14.5663H12.5665C12.6569 14.0863 12.7417 13.5625 12.8125 13.0038ZM13.0078 9.99603C13.0078 10.2599 13.0029 10.5203 12.9941 10.7773H20V9.21478H12.9941C13.0029 9.47159 13.0078 9.73221 13.0078 9.99603ZM12.5443 5.30853C12.6364 5.78674 12.7238 6.31073 12.7974 6.87103H20V5.30853H12.5443ZM10.3177 17.0923C10.3638 16.9621 11.4453 13.8591 11.4453 9.99603C11.4453 6.13297 10.3638 3.02979 10.3177 2.89963L10.1212 2.34375L9.53278 2.38037C9.43756 2.38632 7.17438 2.53632 4.879 3.4993C1.68716 4.8381 0 7.08466 0 9.99603C0 12.9073 1.68716 15.1538 4.879 16.4928C7.17438 17.4556 9.43741 17.6057 9.53262 17.6117L10.1212 17.6483L10.3177 17.0923ZM9.88281 9.99603C9.88281 12.6408 9.32281 14.9475 9.02542 15.9862C8.24966 15.8815 6.83853 15.6256 5.45044 15.0381C2.87064 13.9459 1.5625 12.2496 1.5625 9.99603C1.5625 7.74246 2.87064 6.04599 5.45044 4.95392C6.83899 4.36615 8.25073 4.11026 9.02603 4.00574C9.32373 5.04211 9.88281 7.34253 9.88281 9.99603Z" fill="white"/>
</svg>
