<svg width="18" height="18" viewBox="0 0 18 18" fill="none" xmlns="http://www.w3.org/2000/svg">
<path d="M3 9.75C3 9.33579 3.33579 9 3.75 9H5.25C5.66421 9 6 9.33579 6 9.75V12.75H7.5V9.75C7.5 9.33579 7.83579 9 8.25 9H9.75C10.1642 9 10.5 9.33579 10.5 9.75V12.75H12V9.75C12 9.33579 12.3358 9 12.75 9H14.25C14.6642 9 15 9.33579 15 9.75V12.75C15.8284 12.75 16.5 13.4216 16.5 14.25V15C16.5 15.8284 15.8284 16.5 15 16.5H3C2.17157 16.5 1.5 15.8284 1.5 15V14.25C1.5 13.4216 2.17157 12.75 3 12.75V9.75Z" fill="#E6E6E6"/>
<path d="M1.5 5.51554C1.5 4.90218 1.87343 4.35062 2.44291 4.12282L8.44291 1.72282C8.80053 1.57978 9.19947 1.57978 9.55709 1.72282L15.5571 4.12282C16.1266 4.35062 16.5 4.90218 16.5 5.51554V5.99999C16.5 6.82842 15.8284 7.49999 15 7.49999H3C2.17157 7.49999 1.5 6.82842 1.5 5.99999V5.51554Z" fill="#E6E6E6"/>
</svg>
