<svg width="18" height="18" viewBox="0 0 18 18" fill="none" xmlns="http://www.w3.org/2000/svg">
<g opacity="1" clip-path="url(#clip0)">
<path d="M17.1743 16.3599H0.818025C0.36612 16.3599 0 16.726 0 17.1783C0 17.6298 0.36612 17.9959 0.818025 17.9959H17.1739C17.6258 17.9959 17.992 17.6298 17.992 17.1783C17.9916 16.726 17.6255 16.3599 17.1743 16.3599Z" fill="white"/>
<path d="M1.84146 14.2331C1.38956 14.2331 1.02344 14.5992 1.02344 15.0512C1.02344 15.5031 1.38956 15.8696 1.84146 15.8696H16.1531C16.605 15.8696 16.9711 15.5031 16.9711 15.0512C16.9711 14.5992 16.605 14.2331 16.1531 14.2331H15.949V6.87243H16.1531C16.3794 6.87243 16.5617 6.68938 16.5617 6.46381C16.5617 6.23824 16.3786 6.05518 16.1531 6.05518H1.84146C1.61551 6.05518 1.43283 6.23824 1.43283 6.46381C1.43283 6.68938 1.61589 6.87243 1.84146 6.87243H2.04597V14.2327H1.84146V14.2331ZM14.3129 6.87243V14.2327H11.8596V6.87243H14.3129ZM10.2235 6.87243V14.2327H7.77023V6.87243H10.2235ZM3.68125 6.87243H6.13456V14.2327H3.68125V6.87243Z" fill="white"/>
<path d="M0.818041 5.32032H17.174C17.1766 5.32032 17.1797 5.32032 17.182 5.32032C17.6343 5.32032 18 4.9542 18 4.5023C18 4.14307 17.7687 3.83861 17.4474 3.72831L9.33224 0.0766898C9.11893 -0.0190528 8.87498 -0.0190528 8.66128 0.0766898L0.482559 3.75665C0.130608 3.9152 -0.0627916 4.29741 0.0183981 4.67425C0.0992049 5.05109 0.432389 5.32032 0.818041 5.32032Z" fill="white"/>
</g>
<defs>
<clipPath id="clip0">
<rect width="18" height="18" fill="white"/>
</clipPath>
</defs>
</svg>
