<svg width="20" height="20" viewBox="0 0 20 20" fill="none" xmlns="http://www.w3.org/2000/svg">
<g opacity="0.5">
<path fill-rule="evenodd" clip-rule="evenodd" d="M2.91675 8.59813C2.91675 4.76491 6.11998 1.66667 9.99462 1.66667C13.8802 1.66667 17.0834 4.76491 17.0834 8.59813C17.0834 10.5297 16.3809 12.323 15.2247 13.843C13.9491 15.5196 12.3769 16.9804 10.6072 18.127C10.2022 18.392 9.83664 18.412 9.39212 18.127C7.61236 16.9804 6.04015 15.5196 4.7755 13.843C3.6184 12.323 2.91675 10.5297 2.91675 8.59813ZM7.66194 8.81396C7.66194 10.0981 8.7098 11.1081 9.99462 11.1081C11.2803 11.1081 12.3382 10.0981 12.3382 8.81396C12.3382 7.53983 11.2803 6.48069 9.99462 6.48069C8.7098 6.48069 7.66194 7.53983 7.66194 8.81396Z" fill="white"/>
</g>
</svg>
