<svg width="51" height="51" viewBox="0 0 51 51" fill="none" xmlns="http://www.w3.org/2000/svg">
<path d="M51 25.5C51 39.5833 39.5833 51 25.5 51C11.4167 51 0 39.5833 0 25.5C0 11.4167 11.4167 0 25.5 0C39.5833 0 51 11.4167 51 25.5ZM4.37465 25.5C4.37465 37.1672 13.8328 46.6253 25.5 46.6253C37.1672 46.6253 46.6253 37.1672 46.6253 25.5C46.6253 13.8328 37.1672 4.37465 25.5 4.37465C13.8328 4.37465 4.37465 13.8328 4.37465 25.5Z" fill="white" fill-opacity="0.11"/>
<path d="M25.5 51C32.263 51 38.749 48.3134 43.5312 43.5312C48.3134 38.749 51 32.263 51 25.5C51 18.737 48.3134 12.251 43.5312 7.46878C38.7491 2.6866 32.263 1.31681e-06 25.5 0L25.5 4.37774C31.102 4.37775 36.4745 6.60312 40.4357 10.5643C44.3969 14.5255 46.6223 19.898 46.6223 25.5C46.6223 31.102 44.3969 36.4745 40.4357 40.4357C36.4745 44.3969 31.102 46.6223 25.5 46.6223L25.5 51Z" fill="url(#paint0_linear)"/>
<g clip-path="url(#clip0)">
<path d="M35.2325 24.395H16.4475C15.2511 24.395 14.28 25.3661 14.28 26.5625C14.28 27.759 15.2511 28.73 16.4475 28.73H35.2325C36.429 28.73 37.4 27.759 37.4 26.5625C37.4 25.3661 36.429 24.395 35.2325 24.395Z" fill="white"/>
<path d="M29.4526 17.17H22.2276C18.9605 17.17 16.1846 19.615 15.7742 22.859C15.7699 22.8894 15.7815 22.9197 15.7815 22.95H35.8973C35.8973 22.9197 35.9089 22.8894 35.906 22.859C35.4941 19.615 32.7197 17.17 29.4526 17.17Z" fill="white"/>
<path d="M15.725 30.175V30.8975C15.725 32.8902 17.3463 34.51 19.3375 34.51H32.3425C34.3352 34.51 35.955 32.8902 35.955 30.8975V30.175H15.725Z" fill="white"/>
</g>
<defs>
<linearGradient id="paint0_linear" x1="-8.84861e-06" y1="27.3889" x2="43.9928" y2="71.0115" gradientUnits="userSpaceOnUse">
<stop stop-color="#BAFE2A"/>
<stop offset="1" stop-color="#BAFE2A" stop-opacity="0.05"/>
</linearGradient>
<clipPath id="clip0">
<rect width="23.12" height="23.12" fill="white" transform="translate(14.28 14.28)"/>
</clipPath>
</defs>
</svg>
