<svg width="55" height="59" viewBox="0 0 55 59" fill="none" xmlns="http://www.w3.org/2000/svg">
<g filter="url(#filter0_d_615_2016)">
<path fill-rule="evenodd" clip-rule="evenodd" d="M27.1607 40.5555C21.0536 37.8826 18 35.216 18 32.5555V22.5555C18 21.788 18.2999 21.6096 19.1297 21.1158L19.1297 21.1158C19.381 20.9663 19.6809 20.7879 20.0357 20.5555C20.2004 20.4477 23.6625 18.5555 27.1607 18.5555C30.2094 18.5555 32.7589 19.5555 34.2857 20.5555C34.6405 20.788 34.9404 20.9663 35.1916 21.1158C36.0215 21.6096 36.3214 21.788 36.3214 22.5555C36.3414 22.7728 36.3316 27.3927 36.3253 30.3502C36.3231 31.3588 36.3214 32.1741 36.3214 32.5555C36.3214 35.2222 33.2678 37.8889 27.1607 40.5555ZM34.2858 32.5555C34.2858 32.3252 34.2864 31.9394 34.2877 31.3102L34.2918 29.357C34.2931 28.7251 34.2942 28.1828 34.295 27.6653C34.2988 25.4332 34.2978 23.5174 34.2956 22.9248L34.1557 22.8396C33.8266 22.639 33.3976 22.3775 33.1566 22.2196C31.654 21.2355 29.4614 20.5555 27.1608 20.5555C24.9603 20.5555 22.1007 21.6068 21.1651 22.2196C20.9241 22.3775 20.4951 22.6389 20.166 22.8396L20.166 22.8396L20.0359 22.9189V32.5555C20.0359 34.064 22.3048 36.1243 27.1618 38.3575C32.0182 36.1293 34.2858 34.0698 34.2858 32.5555ZM30.8823 25.5555L26.7023 29.7753L24.4697 27.5215L23.0926 28.9116L26.7023 32.5555L32.2593 26.9457L30.8823 25.5555Z" fill="#CEFF42"/>
</g>
<defs>
<filter id="filter0_d_615_2016" x="0" y="0.555542" width="54.3333" height="58" filterUnits="userSpaceOnUse" color-interpolation-filters="sRGB">
<feFlood flood-opacity="0" result="BackgroundImageFix"/>
<feColorMatrix in="SourceAlpha" type="matrix" values="0 0 0 0 0 0 0 0 0 0 0 0 0 0 0 0 0 0 127 0" result="hardAlpha"/>
<feOffset/>
<feGaussianBlur stdDeviation="9"/>
<feComposite in2="hardAlpha" operator="out"/>
<feColorMatrix type="matrix" values="0 0 0 0 0.152941 0 0 0 0 0.682353 0 0 0 0 0.376471 0 0 0 0.6 0"/>
<feBlend mode="normal" in2="BackgroundImageFix" result="effect1_dropShadow_615_2016"/>
<feBlend mode="normal" in="SourceGraphic" in2="effect1_dropShadow_615_2016" result="shape"/>
</filter>
</defs>
</svg>
