<svg width="25" height="25" viewBox="0 0 25 25" fill="none" xmlns="http://www.w3.org/2000/svg">
<circle cx="12.5" cy="12.5" r="12.5" fill="white" fill-opacity="0.06"/>
<g clip-path="url(#clip0)">
<path d="M12.4092 12.2713C13.2364 12.2713 13.9527 11.9746 14.538 11.3892C15.1232 10.804 15.4199 10.0879 15.4199 9.26055C15.4199 8.43352 15.1232 7.71732 14.5379 7.13186C13.9525 6.54669 13.2363 6.25 12.4092 6.25C11.5819 6.25 10.8658 6.54669 10.2805 7.13195C9.69522 7.71722 9.39844 8.43343 9.39844 9.26055C9.39844 10.0879 9.69522 10.8041 10.2806 11.3893C10.866 11.9745 11.5822 12.2713 12.4092 12.2713Z" fill="white" fill-opacity="0.7"/>
<path d="M17.677 15.8617C17.6601 15.6182 17.626 15.3525 17.5757 15.0719C17.525 14.7892 17.4596 14.522 17.3814 14.2778C17.3007 14.0253 17.1908 13.776 17.055 13.5372C16.914 13.2892 16.7485 13.0733 16.5627 12.8956C16.3684 12.7097 16.1306 12.5603 15.8556 12.4513C15.5815 12.3429 15.2777 12.2879 14.9528 12.2879C14.8252 12.2879 14.7018 12.3403 14.4635 12.4955C14.3168 12.5911 14.1452 12.7017 13.9537 12.8241C13.79 12.9284 13.5682 13.0262 13.2942 13.1147C13.0269 13.2012 12.7554 13.245 12.4876 13.245C12.2197 13.245 11.9483 13.2012 11.6807 13.1147C11.407 13.0263 11.1852 12.9285 11.0217 12.8242C10.832 12.703 10.6603 12.5923 10.5114 12.4954C10.2734 12.3402 10.1499 12.2878 10.0223 12.2878C9.6973 12.2878 9.39365 12.3429 9.11966 12.4514C8.84481 12.5602 8.60686 12.7097 8.41241 12.8957C8.22673 13.0735 8.06108 13.2893 7.92031 13.5372C7.78461 13.776 7.67474 14.0252 7.59387 14.2779C7.51577 14.5221 7.45044 14.7892 7.3997 15.0719C7.34945 15.3521 7.3153 15.6179 7.29842 15.862C7.28183 16.1012 7.27344 16.3494 7.27344 16.6001C7.27344 17.2527 7.48086 17.7809 7.88989 18.1705C8.29387 18.5549 8.8284 18.7499 9.47843 18.7499H15.4973C16.1473 18.7499 16.6816 18.555 17.0857 18.1705C17.4948 17.7812 17.7022 17.2528 17.7022 16.6001C17.7022 16.3482 17.6937 16.0998 17.677 15.8617Z" fill="white" fill-opacity="0.7"/>
</g>
<defs>
<clipPath id="clip0">
<rect width="12.5" height="12.5" fill="white" transform="translate(6.25 6.25)"/>
</clipPath>
</defs>
</svg>
