<svg width="27" height="26" viewBox="0 0 27 26" fill="none" xmlns="http://www.w3.org/2000/svg">
<path d="M21.2306 1.88097L17.4995 1.89851L16.4172 4.76238L13.9431 11.7063L22.9431 11.8994C14.886 14.6934 11.5309 17.9978 9.18621 26L13.9431 25.8069C15.0161 20.8823 16.9718 17.1899 21.2623 16.1454L23.973 15.4982C24.3291 15.4131 24.6203 15.1485 24.7482 14.7935L26.9534 8.6747C27.1307 8.18294 26.7801 7.65887 26.2739 7.65887H19.2432L21.2306 1.88097Z" fill="white"/>
<path d="M6.49486 22.1955H10.533L13.0569 14.1006L4.34959 14.1006C12.4067 11.3066 15.7618 8.0022 18.1065 4.57857e-07L13.0569 0C11.9839 4.9246 10.0282 8.61706 5.7377 9.66155L3.02697 10.3088C2.6709 10.3938 2.37974 10.6585 2.25181 11.0134L0.0465736 17.1322C-0.130656 17.624 0.219912 18.1481 0.72609 18.1481L7.75678 18.1481L6.49486 22.1955Z" fill="white"/>
</svg>
