<svg width="24" height="25" viewBox="0 0 24 25" fill="none" xmlns="http://www.w3.org/2000/svg">
<g opacity="0.24">
<path fill-rule="evenodd" clip-rule="evenodd" d="M12.1748 15.7729H11.825C9.42166 15.7729 7.47358 13.8482 7.47358 11.4759V6.85261C7.47358 4.47927 9.42166 2.55554 11.825 2.55554H12.1748C14.5781 2.55554 16.5272 4.47927 16.5272 6.85261V11.4759C16.5272 13.8482 14.5781 15.7729 12.1748 15.7729ZM18.5626 11.3384C18.5626 10.8094 18.9966 10.3818 19.5313 10.3818C20.066 10.3818 20.5 10.8094 20.5 11.3384C20.5 15.6422 17.2006 19.1959 12.9692 19.6733V21.5989C12.9692 22.127 12.5352 22.5555 12.0005 22.5555C11.4648 22.5555 11.0318 22.127 11.0318 21.5989V19.6733C6.79945 19.1959 3.5 15.6422 3.5 11.3384C3.5 10.8094 3.93398 10.3818 4.46872 10.3818C5.00345 10.3818 5.43743 10.8094 5.43743 11.3384C5.43743 14.9113 8.38136 17.8184 12.0005 17.8184C15.6186 17.8184 18.5626 14.9113 18.5626 11.3384Z" fill="white"/>
</g>
</svg>
