<svg width="22" height="22" viewBox="0 0 22 22" fill="red" xmlns="http://www.w3.org/2000/svg">
<g clip-path="url(#clip0)">
<path d="M18.1743 11.777C18.1743 11.4148 17.8806 11.121 17.5182 11.121C17.1558 11.121 16.8621 11.4148 16.8621 11.777C16.8621 14.9862 14.2514 17.5969 11.0421 17.5969C7.83308 17.5969 5.22238 14.9862 5.22238 11.777C5.22238 11.4148 4.92865 11.121 4.56627 11.121C4.20389 11.121 3.91016 11.4148 3.91016 11.777C3.91016 15.4886 6.75986 18.5462 10.386 18.8786V20.6448H7.95124C7.58886 20.6448 7.29513 20.9386 7.29513 21.301C7.29513 21.6633 7.58886 21.9571 7.95124 21.9571H14.1332C14.4954 21.9571 14.7892 21.6633 14.7892 21.301C14.7892 20.9386 14.4954 20.6448 14.1332 20.6448H11.6983V18.8786C15.3246 18.5464 18.1743 15.4886 18.1743 11.777Z" fill="#BAFE2A"/>
<path d="M11.0422 15.978C13.3586 15.978 15.2432 14.0934 15.2432 11.777V4.15791C15.2432 1.84162 13.3586 -0.0429688 11.0422 -0.0429688C8.72589 -0.0429688 6.84131 1.84162 6.84131 4.15791V11.777C6.84131 14.0934 8.72589 15.978 11.0422 15.978Z" fill="#BAFE2A"/>
</g>
<defs>
<clipPath id="clip0">
<rect width="22" height="22" fill="red"/>
</clipPath>
</defs>
</svg>
