<svg width="25" height="25" viewBox="0 0 25 25" fill="none" xmlns="http://www.w3.org/2000/svg">
<circle cx="12.5" cy="12.5" r="12.5" fill="white" fill-opacity="0.06"/>
<g clip-path="url(#clip0)">
<path d="M12.5 6.25C9.05361 6.25 6.25 9.05361 6.25 12.5C6.25 15.9464 9.05361 18.75 12.5 18.75C15.9464 18.75 18.75 15.9464 18.75 12.5C18.75 9.05361 15.9464 6.25 12.5 6.25ZM15.4724 15.7328C15.3708 15.8343 15.2375 15.8854 15.1042 15.8854C14.9709 15.8854 14.8375 15.8343 14.736 15.7328L12.1318 13.1287C12.0338 13.0313 11.9792 12.8989 11.9792 12.7604V9.375C11.9792 9.08699 12.2125 8.8542 12.5 8.8542C12.7875 8.8542 13.0208 9.08699 13.0208 9.375V12.5448L15.4724 14.9963C15.676 15.2 15.676 15.5292 15.4724 15.7328Z" fill="white" fill-opacity="0.7"/>
</g>
<defs>
<clipPath id="clip0">
<rect width="12.5" height="12.5" fill="white" transform="translate(6.25 6.25)"/>
</clipPath>
</defs>
</svg>
