<svg width="20" height="20" viewBox="0 0 20 20" fill="none" xmlns="http://www.w3.org/2000/svg">
<g opacity="0.5">
<path fill-rule="evenodd" clip-rule="evenodd" d="M10.0001 18.3333C14.6025 18.3333 18.3334 14.6024 18.3334 10C18.3334 5.39763 14.6025 1.66667 10.0001 1.66667C5.39771 1.66667 1.66675 5.39763 1.66675 10C1.66675 14.6024 5.39771 18.3333 10.0001 18.3333ZM10.8334 5.83333C10.8334 5.3731 10.4603 5 10.0001 5C9.53984 5 9.16675 5.3731 9.16675 5.83333V10C9.16675 10.221 9.25455 10.433 9.41083 10.5893L11.4942 12.6726C11.8196 12.998 12.3472 12.998 12.6727 12.6726C12.9981 12.3472 12.9981 11.8195 12.6727 11.4941L10.8334 9.65482V5.83333Z" fill="white"/>
</g>
</svg>
