<svg width="51" height="51" viewBox="0 0 51 51" fill="none" xmlns="http://www.w3.org/2000/svg">
<path d="M51 25.5C51 39.5833 39.5833 51 25.5 51C11.4167 51 0 39.5833 0 25.5C0 11.4167 11.4167 0 25.5 0C39.5833 0 51 11.4167 51 25.5ZM4.37465 25.5C4.37465 37.1672 13.8328 46.6253 25.5 46.6253C37.1672 46.6253 46.6253 37.1672 46.6253 25.5C46.6253 13.8328 37.1672 4.37465 25.5 4.37465C13.8328 4.37465 4.37465 13.8328 4.37465 25.5Z" fill="white" fill-opacity="0.11"/>
<path d="M25.5 51C30.0145 51 34.448 49.8015 38.3476 47.527C42.2472 45.2525 45.4731 41.9835 47.6956 38.0541C49.9182 34.1246 51.0577 29.6756 50.9978 25.1615C50.9378 20.6475 49.6806 16.2302 47.3545 12.3612C45.0285 8.49209 41.717 5.30989 37.7583 3.1397C33.7997 0.969517 29.336 -0.110852 24.8231 0.00898594C20.3102 0.128824 15.9101 1.44457 12.0722 3.82179C8.23437 6.19901 5.09641 9.55247 2.97896 13.5395L6.84528 15.5929C8.59922 12.2903 11.1985 9.51253 14.3775 7.54342C17.5564 5.57432 21.2012 4.48445 24.9393 4.38519C28.6774 4.28592 32.3749 5.18082 35.6539 6.97843C38.9329 8.77605 41.6759 11.4119 43.6026 14.6168C45.5294 17.8216 46.5708 21.4805 46.6204 25.2196C46.67 28.9587 45.7261 32.644 43.8852 35.8988C42.0442 39.1537 39.3721 41.8615 36.142 43.7455C32.9118 45.6295 29.2394 46.6223 25.5 46.6223L25.5 51Z" fill="url(#paint0_linear)"/>
<path d="M26.9482 15.6937C26.4328 15.08 25.9418 14.5155 25.5 14C25.0582 14.54 24.5672 15.1046 24.0518 15.6937C20.9344 19.2775 16.6387 24.2604 16.6387 28.1387C16.6387 30.5934 17.6206 32.8026 19.2407 34.3981C20.8362 35.9936 23.0454 37 25.5 37C27.9546 37 30.1638 36.0181 31.7593 34.3981C33.3548 32.8026 34.3613 30.5688 34.3613 28.1387C34.3613 24.2604 30.0656 19.302 26.9482 15.6937Z" fill="white"/>
<defs>
<linearGradient id="paint0_linear" x1="-8.84861e-06" y1="27.3889" x2="43.9928" y2="71.0115" gradientUnits="userSpaceOnUse">
<stop stop-color="#BAFE2A"/>
<stop offset="1" stop-color="#BAFE2A" stop-opacity="0.05"/>
</linearGradient>
</defs>
</svg>
