<svg width="8" height="10" viewBox="0 0 8 10" fill="none" xmlns="http://www.w3.org/2000/svg">
<path d="M6.57346 1.81923C7.02591 1.50252 7.13595 0.878987 6.81923 0.426538C6.50252 -0.0259117 5.87899 -0.135946 5.42654 0.180768L6.57346 1.81923ZM5.42654 8.81923L6.24577 9.39269L7.39269 7.75423L6.57346 7.18077L5.42654 8.81923ZM5.42654 0.180768L1.59687 2.86154L2.7438 4.5L6.57346 1.81923L5.42654 0.180768ZM1.59687 6.13846L5.42654 8.81923L6.57346 7.18077L2.74379 4.5L1.59687 6.13846ZM1.59687 2.86154C0.459439 3.65774 0.459433 5.34226 1.59687 6.13846L2.74379 4.5L2.7438 4.5L1.59687 2.86154Z" fill="white"/>
</svg>
