<svg width="19" height="19" viewBox="0 0 19 19" fill="none" xmlns="http://www.w3.org/2000/svg">
<g clip-path="url(#clip0)">
<path d="M18.7862 13.7936L15.2237 10.8248C15.0468 10.6764 14.7998 10.6467 14.592 10.7429C14.383 10.8414 14.25 11.0504 14.25 11.2808V13.0621H13.2561C12.4319 13.0621 11.6791 12.6441 11.2421 11.9458L7.39694 5.79457C6.52413 4.39689 5.01837 3.56207 3.36894 3.56207H0V5.93707H3.36894C4.19306 5.93707 4.94594 6.35507 5.38294 7.05332L9.22806 13.2046C10.1021 14.6023 11.6078 15.4371 13.2561 15.4371H14.25V17.2183C14.25 17.4487 14.383 17.6577 14.592 17.7563C14.6716 17.7931 14.7583 17.8121 14.8438 17.8121C14.9803 17.8121 15.1157 17.7658 15.2237 17.6743L18.7862 14.7056C18.9228 14.5928 19 14.4253 19 14.2496C19 14.0738 18.9228 13.9064 18.7862 13.7936Z" fill="#FFFFFF"/>
<path d="M18.7862 4.29354L15.2237 1.32479C15.0468 1.17754 14.7998 1.14667 14.592 1.24404C14.383 1.34023 14.25 1.55042 14.25 1.78079V3.56204H13.2561C11.6066 3.56204 10.1009 4.39686 9.22806 5.79454L9.01312 6.13892L10.4132 8.37973L11.2421 7.05329C11.6791 6.35504 12.4319 5.93705 13.2561 5.93705H14.25V7.7183C14.25 7.94867 14.383 8.15886 14.592 8.25623C14.6716 8.29304 14.7582 8.31205 14.8437 8.31205C14.9803 8.31205 15.1157 8.26454 15.2237 8.17429L18.7862 5.20554C18.9228 5.09273 19 4.92529 19 4.74954C19 4.57379 18.9228 4.40636 18.7862 4.29354Z" fill="#FFFFFF"/>
<path d="M6.21181 10.6193L5.38412 11.9458C4.94712 12.644 4.19306 13.062 3.36894 13.062H0V15.437H3.36894C5.01719 15.437 6.52294 14.6022 7.39694 13.2045L7.61187 12.8601L6.21181 10.6193Z" fill="#FFFFFF"/>
</g>
<defs>
<clipPath id="clip0">
<rect width="19" height="19" fill="white"/>
</clipPath>
</defs>
</svg>
